<svg width="235" height="69" viewBox="0 0 235 69" fill="none" xmlns="http://www.w3.org/2000/svg">
<path d="M5.84375 17H3.42188V7.59375H0.320312V5.57812H8.94531V7.59375H5.84375V17ZM20.0625 17H17.6484V12.0703H13.125V17H10.7031V5.57812H13.125V10.0547H17.6484V5.57812H20.0625V17ZM29.5312 17H22.9531V5.57812H29.5312V7.5625H25.375V10.0703H29.2422V12.0547H25.375V15H29.5312V17Z" fill="black"/>
<path d="M11.2471 36.6387C11.2471 37.5697 11.0215 38.3789 10.5703 39.0664C10.1191 39.7539 9.46029 40.2839 8.59375 40.6562C7.73438 41.0286 6.6888 41.2148 5.45703 41.2148C4.91276 41.2148 4.37923 41.179 3.85645 41.1074C3.34082 41.0358 2.8431 40.932 2.36328 40.7959C1.89062 40.6527 1.43945 40.4772 1.00977 40.2695V37.1758C1.75456 37.5052 2.52799 37.8024 3.33008 38.0674C4.13216 38.3324 4.92708 38.4648 5.71484 38.4648C6.25911 38.4648 6.69596 38.3932 7.02539 38.25C7.36198 38.1068 7.60547 37.9098 7.75586 37.6592C7.90625 37.4085 7.98145 37.1221 7.98145 36.7998C7.98145 36.4059 7.84896 36.0693 7.58398 35.79C7.31901 35.5107 6.95378 35.2493 6.48828 35.0059C6.02995 34.7624 5.51074 34.501 4.93066 34.2217C4.56543 34.0498 4.16797 33.8421 3.73828 33.5986C3.30859 33.348 2.90039 33.0436 2.51367 32.6855C2.12695 32.3275 1.80827 31.8942 1.55762 31.3857C1.31413 30.8701 1.19238 30.2542 1.19238 29.5381C1.19238 28.5999 1.40723 27.7979 1.83691 27.1318C2.2666 26.4658 2.87891 25.9574 3.67383 25.6064C4.47591 25.2484 5.42122 25.0693 6.50977 25.0693C7.32617 25.0693 8.10319 25.166 8.84082 25.3594C9.58561 25.5456 10.3626 25.8177 11.1719 26.1758L10.0977 28.7646C9.37435 28.471 8.72624 28.2454 8.15332 28.0879C7.5804 27.9232 6.99674 27.8408 6.40234 27.8408C5.98698 27.8408 5.63249 27.9089 5.33887 28.0449C5.04525 28.1738 4.82324 28.36 4.67285 28.6035C4.52246 28.8398 4.44727 29.1156 4.44727 29.4307C4.44727 29.8031 4.55469 30.1182 4.76953 30.376C4.99154 30.6266 5.32096 30.8701 5.75781 31.1064C6.20182 31.3428 6.75326 31.6185 7.41211 31.9336C8.21419 32.3132 8.89811 32.7106 9.46387 33.126C10.0368 33.5342 10.4772 34.0176 10.7852 34.5762C11.0931 35.1276 11.2471 35.8151 11.2471 36.6387ZM28.3486 33.126C28.3486 34.3363 28.1982 35.4391 27.8975 36.4346C27.5967 37.4229 27.1383 38.2751 26.5225 38.9912C25.9137 39.7074 25.1403 40.2588 24.2021 40.6455C23.264 41.0251 22.154 41.2148 20.8721 41.2148C19.5902 41.2148 18.4801 41.0251 17.542 40.6455C16.6038 40.2588 15.8268 39.7074 15.2109 38.9912C14.6022 38.2751 14.1475 37.4193 13.8467 36.4238C13.5459 35.4284 13.3955 34.3219 13.3955 33.1045C13.3955 31.4788 13.6605 30.0645 14.1904 28.8613C14.7275 27.651 15.5511 26.7129 16.6611 26.0469C17.7712 25.3809 19.182 25.0479 20.8936 25.0479C22.598 25.0479 23.998 25.3809 25.0938 26.0469C26.1966 26.7129 27.013 27.651 27.543 28.8613C28.0801 30.0716 28.3486 31.4932 28.3486 33.126ZM16.8867 33.126C16.8867 34.2217 17.0228 35.167 17.2949 35.9619C17.5742 36.7497 18.0075 37.3584 18.5947 37.7881C19.182 38.2106 19.9411 38.4219 20.8721 38.4219C21.8174 38.4219 22.5837 38.2106 23.1709 37.7881C23.7581 37.3584 24.1842 36.7497 24.4492 35.9619C24.7214 35.167 24.8574 34.2217 24.8574 33.126C24.8574 31.4788 24.5495 30.1826 23.9336 29.2373C23.3177 28.292 22.3044 27.8193 20.8936 27.8193C19.9554 27.8193 19.1891 28.0342 18.5947 28.4639C18.0075 28.8864 17.5742 29.4951 17.2949 30.29C17.0228 31.0778 16.8867 32.0231 16.8867 33.126ZM38.2529 41L34.4717 28.6787H34.375C34.3893 28.9723 34.4108 29.4163 34.4395 30.0107C34.4753 30.598 34.5075 31.2246 34.5361 31.8906C34.5648 32.5566 34.5791 33.1582 34.5791 33.6953V41H31.6035V25.2949H36.1367L39.8535 37.3047H39.918L43.8604 25.2949H48.3936V41H45.2891V33.5664C45.2891 33.0723 45.2962 32.5029 45.3105 31.8584C45.332 31.2139 45.3571 30.6016 45.3857 30.0215C45.4144 29.4342 45.4359 28.9938 45.4502 28.7002H45.3535L41.3037 41H38.2529ZM61.4023 41H52.3574V25.2949H61.4023V28.0234H55.6875V31.4717H61.0049V34.2002H55.6875V38.25H61.4023V41ZM70.748 41H67.418V28.0664H63.1533V25.2949H75.0127V28.0664H70.748V41ZM90.2988 41H86.9795V34.2217H80.7598V41H77.4297V25.2949H80.7598V31.4502H86.9795V25.2949H90.2988V41ZM94.2734 41V25.2949H97.6035V41H94.2734ZM115.489 41H111.257L104.425 29.1191H104.328C104.357 29.6133 104.382 30.111 104.403 30.6123C104.425 31.1136 104.446 31.6149 104.468 32.1162C104.489 32.6104 104.511 33.1081 104.532 33.6094V41H101.557V25.2949H105.757L112.578 37.0576H112.653C112.639 36.5706 112.621 36.0872 112.6 35.6074C112.578 35.1276 112.557 34.6478 112.535 34.168C112.521 33.6882 112.507 33.2083 112.492 32.7285V25.2949H115.489V41ZM125.415 32.1807H131.646V40.3232C130.822 40.5954 129.966 40.8138 129.078 40.9785C128.19 41.1361 127.184 41.2148 126.06 41.2148C124.498 41.2148 123.174 40.9069 122.085 40.291C120.996 39.6751 120.169 38.7656 119.604 37.5625C119.038 36.3594 118.755 34.8805 118.755 33.126C118.755 31.4788 119.07 30.0537 119.7 28.8506C120.338 27.6475 121.265 26.7165 122.482 26.0576C123.707 25.3988 125.2 25.0693 126.962 25.0693C127.793 25.0693 128.613 25.1589 129.422 25.3379C130.231 25.5169 130.965 25.7497 131.624 26.0361L130.518 28.7002C130.038 28.4567 129.49 28.2526 128.874 28.0879C128.258 27.9232 127.614 27.8408 126.94 27.8408C125.974 27.8408 125.132 28.0628 124.416 28.5068C123.707 28.9508 123.156 29.5739 122.762 30.376C122.375 31.1709 122.182 32.109 122.182 33.1904C122.182 34.2145 122.321 35.124 122.601 35.9189C122.88 36.7067 123.32 37.3262 123.922 37.7773C124.523 38.2214 125.308 38.4434 126.274 38.4434C126.747 38.4434 127.145 38.4219 127.467 38.3789C127.796 38.3288 128.104 38.2786 128.391 38.2285V34.9521H125.415V32.1807Z" fill="#0085FF"/>
<path d="M145.754 37.8281C145.754 38.5052 145.59 39.0938 145.262 39.5938C144.934 40.0938 144.454 40.4792 143.824 40.75C143.199 41.0208 142.439 41.1562 141.543 41.1562C141.147 41.1562 140.759 41.1302 140.379 41.0781C140.004 41.026 139.642 40.9505 139.293 40.8516C138.949 40.7474 138.621 40.6198 138.309 40.4688V38.2188C138.85 38.4583 139.413 38.6745 139.996 38.8672C140.579 39.0599 141.158 39.1562 141.73 39.1562C142.126 39.1562 142.444 39.1042 142.684 39C142.928 38.8958 143.105 38.7526 143.215 38.5703C143.324 38.388 143.379 38.1797 143.379 37.9453C143.379 37.6589 143.283 37.4141 143.09 37.2109C142.897 37.0078 142.632 36.8177 142.293 36.6406C141.96 36.4635 141.582 36.2734 141.16 36.0703C140.895 35.9453 140.605 35.7943 140.293 35.6172C139.98 35.4349 139.684 35.2135 139.402 34.9531C139.121 34.6927 138.889 34.3776 138.707 34.0078C138.53 33.6328 138.441 33.1849 138.441 32.6641C138.441 31.9818 138.598 31.3984 138.91 30.9141C139.223 30.4297 139.668 30.0599 140.246 29.8047C140.829 29.5443 141.517 29.4141 142.309 29.4141C142.902 29.4141 143.467 29.4844 144.004 29.625C144.546 29.7604 145.111 29.9583 145.699 30.2188L144.918 32.1016C144.392 31.888 143.921 31.724 143.504 31.6094C143.087 31.4896 142.663 31.4297 142.23 31.4297C141.928 31.4297 141.671 31.4792 141.457 31.5781C141.243 31.6719 141.082 31.8073 140.973 31.9844C140.863 32.1562 140.809 32.3568 140.809 32.5859C140.809 32.8568 140.887 33.0859 141.043 33.2734C141.204 33.4557 141.444 33.6328 141.762 33.8047C142.085 33.9766 142.486 34.1771 142.965 34.4062C143.548 34.6823 144.046 34.9714 144.457 35.2734C144.874 35.5703 145.194 35.9219 145.418 36.3281C145.642 36.7292 145.754 37.2292 145.754 37.8281ZM158.191 35.2734C158.191 36.1536 158.082 36.9557 157.863 37.6797C157.645 38.3984 157.311 39.0182 156.863 39.5391C156.421 40.0599 155.858 40.4609 155.176 40.7422C154.493 41.0182 153.686 41.1562 152.754 41.1562C151.822 41.1562 151.014 41.0182 150.332 40.7422C149.65 40.4609 149.085 40.0599 148.637 39.5391C148.194 39.0182 147.863 38.3958 147.645 37.6719C147.426 36.9479 147.316 36.1432 147.316 35.2578C147.316 34.0755 147.509 33.0469 147.895 32.1719C148.285 31.2917 148.884 30.6094 149.691 30.125C150.499 29.6406 151.525 29.3984 152.77 29.3984C154.009 29.3984 155.027 29.6406 155.824 30.125C156.626 30.6094 157.22 31.2917 157.605 32.1719C157.996 33.0521 158.191 34.0859 158.191 35.2734ZM149.855 35.2734C149.855 36.0703 149.954 36.7578 150.152 37.3359C150.355 37.9089 150.671 38.3516 151.098 38.6641C151.525 38.9714 152.077 39.125 152.754 39.125C153.441 39.125 153.999 38.9714 154.426 38.6641C154.853 38.3516 155.163 37.9089 155.355 37.3359C155.553 36.7578 155.652 36.0703 155.652 35.2734C155.652 34.0755 155.428 33.1328 154.98 32.4453C154.533 31.7578 153.796 31.4141 152.77 31.4141C152.087 31.4141 151.53 31.5703 151.098 31.8828C150.671 32.1901 150.355 32.6328 150.152 33.2109C149.954 33.7839 149.855 34.4714 149.855 35.2734ZM165.395 41L162.645 32.0391H162.574C162.585 32.2526 162.6 32.5755 162.621 33.0078C162.647 33.4349 162.671 33.8906 162.691 34.375C162.712 34.8594 162.723 35.2969 162.723 35.6875V41H160.559V29.5781H163.855L166.559 38.3125H166.605L169.473 29.5781H172.77V41H170.512V35.5938C170.512 35.2344 170.517 34.8203 170.527 34.3516C170.543 33.8828 170.561 33.4375 170.582 33.0156C170.603 32.5885 170.618 32.2682 170.629 32.0547H170.559L167.613 41H165.395ZM182.23 41H175.652V29.5781H182.23V31.5625H178.074V34.0703H181.941V36.0547H178.074V39H182.23V41ZM189.027 41H186.605V31.5938H183.504V29.5781H192.129V31.5938H189.027V41ZM203.246 41H200.832V36.0703H196.309V41H193.887V29.5781H196.309V34.0547H200.832V29.5781H203.246V41ZM206.137 41V29.5781H208.559V41H206.137ZM221.566 41H218.488L213.52 32.3594H213.449C213.47 32.7188 213.488 33.0807 213.504 33.4453C213.52 33.8099 213.535 34.1745 213.551 34.5391C213.566 34.8984 213.582 35.2604 213.598 35.625V41H211.434V29.5781H214.488L219.449 38.1328H219.504C219.493 37.7786 219.48 37.4271 219.465 37.0781C219.449 36.7292 219.434 36.3802 219.418 36.0312C219.408 35.6823 219.397 35.3333 219.387 34.9844V29.5781H221.566V41ZM228.785 34.5859H233.316V40.5078C232.717 40.7057 232.095 40.8646 231.449 40.9844C230.803 41.099 230.072 41.1562 229.254 41.1562C228.118 41.1562 227.155 40.9323 226.363 40.4844C225.572 40.0365 224.97 39.375 224.559 38.5C224.147 37.625 223.941 36.5495 223.941 35.2734C223.941 34.0755 224.171 33.0391 224.629 32.1641C225.092 31.2891 225.767 30.612 226.652 30.1328C227.543 29.6536 228.629 29.4141 229.91 29.4141C230.514 29.4141 231.111 29.4792 231.699 29.6094C232.288 29.7396 232.822 29.9089 233.301 30.1172L232.496 32.0547C232.147 31.8776 231.749 31.7292 231.301 31.6094C230.853 31.4896 230.384 31.4297 229.895 31.4297C229.191 31.4297 228.579 31.5911 228.059 31.9141C227.543 32.237 227.142 32.6901 226.855 33.2734C226.574 33.8516 226.434 34.5339 226.434 35.3203C226.434 36.0651 226.535 36.7266 226.738 37.3047C226.941 37.8776 227.262 38.3281 227.699 38.6562C228.137 38.9792 228.707 39.1406 229.41 39.1406C229.754 39.1406 230.043 39.125 230.277 39.0938C230.517 39.0573 230.741 39.0208 230.949 38.9844V36.6016H228.785V34.5859Z" fill="black"/>
<path d="M158.289 54.4297C157.826 54.4297 157.414 54.5208 157.055 54.7031C156.701 54.8802 156.401 55.138 156.156 55.4766C155.917 55.8151 155.734 56.224 155.609 56.7031C155.484 57.1823 155.422 57.7214 155.422 58.3203C155.422 59.1276 155.521 59.8177 155.719 60.3906C155.922 60.9583 156.234 61.3932 156.656 61.6953C157.078 61.9922 157.622 62.1406 158.289 62.1406C158.753 62.1406 159.216 62.0885 159.68 61.9844C160.148 61.8802 160.656 61.7318 161.203 61.5391V63.5703C160.698 63.7786 160.201 63.9271 159.711 64.0156C159.221 64.1094 158.672 64.1562 158.062 64.1562C156.885 64.1562 155.917 63.9141 155.156 63.4297C154.401 62.9401 153.841 62.2578 153.477 61.3828C153.112 60.5026 152.93 59.4766 152.93 58.3047C152.93 57.4401 153.047 56.6484 153.281 55.9297C153.516 55.2109 153.859 54.5885 154.312 54.0625C154.766 53.5365 155.326 53.1302 155.992 52.8438C156.659 52.5573 157.424 52.4141 158.289 52.4141C158.857 52.4141 159.424 52.487 159.992 52.6328C160.565 52.7734 161.112 52.9688 161.633 53.2188L160.852 55.1875C160.424 54.9844 159.995 54.8073 159.562 54.6562C159.13 54.5052 158.706 54.4297 158.289 54.4297ZM174.008 58.2734C174.008 59.1536 173.898 59.9557 173.68 60.6797C173.461 61.3984 173.128 62.0182 172.68 62.5391C172.237 63.0599 171.674 63.4609 170.992 63.7422C170.31 64.0182 169.503 64.1562 168.57 64.1562C167.638 64.1562 166.831 64.0182 166.148 63.7422C165.466 63.4609 164.901 63.0599 164.453 62.5391C164.01 62.0182 163.68 61.3958 163.461 60.6719C163.242 59.9479 163.133 59.1432 163.133 58.2578C163.133 57.0755 163.326 56.0469 163.711 55.1719C164.102 54.2917 164.701 53.6094 165.508 53.125C166.315 52.6406 167.341 52.3984 168.586 52.3984C169.826 52.3984 170.844 52.6406 171.641 53.125C172.443 53.6094 173.036 54.2917 173.422 55.1719C173.812 56.0521 174.008 57.0859 174.008 58.2734ZM165.672 58.2734C165.672 59.0703 165.771 59.7578 165.969 60.3359C166.172 60.9089 166.487 61.3516 166.914 61.6641C167.341 61.9714 167.893 62.125 168.57 62.125C169.258 62.125 169.815 61.9714 170.242 61.6641C170.669 61.3516 170.979 60.9089 171.172 60.3359C171.37 59.7578 171.469 59.0703 171.469 58.2734C171.469 57.0755 171.245 56.1328 170.797 55.4453C170.349 54.7578 169.612 54.4141 168.586 54.4141C167.904 54.4141 167.346 54.5703 166.914 54.8828C166.487 55.1901 166.172 55.6328 165.969 56.2109C165.771 56.7839 165.672 57.4714 165.672 58.2734ZM181.211 64L178.461 55.0391H178.391C178.401 55.2526 178.417 55.5755 178.438 56.0078C178.464 56.4349 178.487 56.8906 178.508 57.375C178.529 57.8594 178.539 58.2969 178.539 58.6875V64H176.375V52.5781H179.672L182.375 61.3125H182.422L185.289 52.5781H188.586V64H186.328V58.5938C186.328 58.2344 186.333 57.8203 186.344 57.3516C186.359 56.8828 186.378 56.4375 186.398 56.0156C186.419 55.5885 186.435 55.2682 186.445 55.0547H186.375L183.43 64H181.211ZM195.117 52.5781C196.591 52.5781 197.667 52.8958 198.344 53.5312C199.021 54.1615 199.359 55.0312 199.359 56.1406C199.359 56.6406 199.284 57.1198 199.133 57.5781C198.982 58.0312 198.734 58.4349 198.391 58.7891C198.052 59.1432 197.599 59.4245 197.031 59.6328C196.464 59.8359 195.763 59.9375 194.93 59.9375H193.891V64H191.469V52.5781H195.117ZM194.992 54.5625H193.891V57.9531H194.688C195.141 57.9531 195.534 57.8932 195.867 57.7734C196.201 57.6536 196.458 57.4661 196.641 57.2109C196.823 56.9557 196.914 56.6276 196.914 56.2266C196.914 55.6641 196.758 55.2474 196.445 54.9766C196.133 54.7005 195.648 54.5625 194.992 54.5625ZM208.508 64L207.68 61.2812H203.516L202.688 64H200.078L204.109 52.5312H207.07L211.117 64H208.508ZM207.102 59.25L206.273 56.5938C206.221 56.4167 206.151 56.1901 206.062 55.9141C205.979 55.6328 205.893 55.349 205.805 55.0625C205.721 54.7708 205.654 54.5182 205.602 54.3047C205.549 54.5182 205.477 54.7839 205.383 55.1016C205.294 55.4141 205.208 55.7109 205.125 55.9922C205.042 56.2734 204.982 56.474 204.945 56.5938L204.125 59.25H207.102ZM222.695 64H219.617L214.648 55.3594H214.578C214.599 55.7188 214.617 56.0807 214.633 56.4453C214.648 56.8099 214.664 57.1745 214.68 57.5391C214.695 57.8984 214.711 58.2604 214.727 58.625V64H212.562V52.5781H215.617L220.578 61.1328H220.633C220.622 60.7786 220.609 60.4271 220.594 60.0781C220.578 59.7292 220.562 59.3802 220.547 59.0312C220.536 58.6823 220.526 58.3333 220.516 57.9844V52.5781H222.695V64ZM229.133 57.2812L231.516 52.5781H234.125L230.336 59.5547V64H227.93V59.6328L224.141 52.5781H226.766L229.133 57.2812Z" fill="black"/>
</svg>
