<svg width="239" height="60" viewBox="0 0 239 60" fill="none" xmlns="http://www.w3.org/2000/svg">
<path d="M18.2734 17H15.1875V8.10156H12.3984V5.57812H21.0547V8.10156H18.2734V17ZM32.4766 17H29.375V12.3438H25.7891V17H22.6875V5.57812H25.7891V9.8125H29.375V5.57812H32.4766V17ZM41.7344 17H34.9531V5.57812H41.7344V8.05469H38.0391V9.85156H41.4609V12.3281H38.0391V14.4844H41.7344V17Z" fill="black"/>
<path d="M11.9668 33.2305C11.9668 34.0827 11.752 34.8919 11.3223 35.6582C10.8926 36.4173 10.223 37.0332 9.31348 37.5059C8.41113 37.9785 7.24382 38.2148 5.81152 38.2148C5.09538 38.2148 4.46517 38.1826 3.9209 38.1182C3.38379 38.0537 2.88249 37.9499 2.41699 37.8066C1.9515 37.6562 1.4681 37.4629 0.966797 37.2266V33.4453C1.81901 33.875 2.67839 34.2044 3.54492 34.4336C4.41146 34.6556 5.19564 34.7666 5.89746 34.7666C6.31999 34.7666 6.66374 34.7165 6.92871 34.6162C7.20085 34.516 7.40137 34.3799 7.53027 34.208C7.65918 34.029 7.72363 33.8249 7.72363 33.5957C7.72363 33.3236 7.62695 33.0944 7.43359 32.9082C7.2474 32.7148 6.94661 32.5143 6.53125 32.3066C6.11589 32.099 5.56803 31.8411 4.8877 31.5332C4.30762 31.2611 3.78125 30.9818 3.30859 30.6953C2.8431 30.4089 2.44206 30.083 2.10547 29.7178C1.77604 29.3454 1.52181 28.9121 1.34277 28.418C1.16374 27.9238 1.07422 27.3402 1.07422 26.667C1.07422 25.6572 1.32129 24.8122 1.81543 24.1318C2.31673 23.4443 3.01139 22.9287 3.89941 22.585C4.7946 22.2412 5.82585 22.0693 6.99316 22.0693C8.01725 22.0693 8.9375 22.1839 9.75391 22.4131C10.5775 22.6423 11.3151 22.9036 11.9668 23.1973L10.667 26.4736C9.99382 26.1657 9.33138 25.9222 8.67969 25.7432C8.02799 25.557 7.42285 25.4639 6.86426 25.4639C6.49902 25.4639 6.19824 25.5104 5.96191 25.6035C5.73275 25.6895 5.56087 25.8076 5.44629 25.958C5.33887 26.1084 5.28516 26.2803 5.28516 26.4736C5.28516 26.7171 5.37826 26.9355 5.56445 27.1289C5.75781 27.3223 6.0765 27.5335 6.52051 27.7627C6.97168 27.9847 7.58398 28.2747 8.35742 28.6328C9.1237 28.9766 9.77539 29.349 10.3125 29.75C10.8496 30.1439 11.2578 30.6201 11.5371 31.1787C11.8236 31.7301 11.9668 32.4141 11.9668 33.2305ZM29.0898 30.126C29.0898 31.3363 28.943 32.4391 28.6494 33.4346C28.363 34.4229 27.9118 35.2751 27.2959 35.9912C26.68 36.7074 25.8887 37.2588 24.9219 37.6455C23.9551 38.0251 22.7985 38.2148 21.4521 38.2148C20.1344 38.2148 18.9922 38.0251 18.0254 37.6455C17.0658 37.2588 16.2744 36.7109 15.6514 36.002C15.0283 35.2858 14.5664 34.43 14.2656 33.4346C13.9648 32.4391 13.8145 31.3291 13.8145 30.1045C13.8145 28.4717 14.083 27.0537 14.6201 25.8506C15.1644 24.6403 16.0023 23.7057 17.1338 23.0469C18.2653 22.3809 19.7119 22.0479 21.4736 22.0479C23.264 22.0479 24.7178 22.3809 25.835 23.0469C26.9593 23.7129 27.7829 24.651 28.3057 25.8613C28.8285 27.0716 29.0898 28.4932 29.0898 30.126ZM18.2832 30.126C18.2832 31.0713 18.3906 31.8841 18.6055 32.5645C18.8203 33.2448 19.1605 33.7676 19.626 34.1328C20.0915 34.498 20.7002 34.6807 21.4521 34.6807C22.2327 34.6807 22.8522 34.498 23.3105 34.1328C23.776 33.7676 24.109 33.2448 24.3096 32.5645C24.5173 31.8841 24.6211 31.0713 24.6211 30.126C24.6211 28.708 24.3848 27.5872 23.9121 26.7637C23.4395 25.9401 22.6266 25.5283 21.4736 25.5283C20.7074 25.5283 20.0879 25.7145 19.6152 26.0869C19.1497 26.4593 18.8096 26.9893 18.5947 27.6768C18.387 28.3643 18.2832 29.1807 18.2832 30.126ZM38.7686 38L35.5566 26.6885H35.46C35.4886 26.9821 35.5173 27.3796 35.5459 27.8809C35.5817 28.3822 35.6139 28.9229 35.6426 29.5029C35.6712 30.083 35.6855 30.6416 35.6855 31.1787V38H31.9258V22.2949H37.5762L40.8525 33.4453H40.9385L44.1504 22.2949H49.8115V38H45.9121V31.1143C45.9121 30.6201 45.9193 30.0902 45.9336 29.5244C45.9551 28.9515 45.9766 28.4144 45.998 27.9131C46.0267 27.4046 46.0518 27.0036 46.0732 26.71H45.9766L42.8076 38H38.7686ZM62.5195 38H53.1953V22.2949H62.5195V25.7002H57.4385V28.1709H62.1436V31.5762H57.4385V34.541H62.5195V38ZM72.1982 38H67.9551V25.7646H64.1201V22.2949H76.0225V25.7646H72.1982V38ZM91.7275 38H87.4629V31.5977H82.5322V38H78.2676V22.2949H82.5322V28.1172H87.4629V22.2949H91.7275V38ZM95.1328 38V22.2949H99.3975V38H95.1328ZM117.756 38H112.191L106.455 26.9355H106.358C106.394 27.2721 106.426 27.6768 106.455 28.1494C106.484 28.6221 106.509 29.1055 106.53 29.5996C106.552 30.0866 106.562 30.527 106.562 30.9209V38H102.803V22.2949H108.346L114.061 33.209H114.125C114.104 32.8652 114.082 32.4678 114.061 32.0166C114.039 31.5583 114.018 31.0964 113.996 30.6309C113.982 30.1654 113.975 29.7536 113.975 29.3955V22.2949H117.756V38ZM127.456 28.8047H134.234V37.2695C133.425 37.5488 132.498 37.778 131.452 37.957C130.407 38.1289 129.311 38.2148 128.165 38.2148C126.654 38.2148 125.329 37.9212 124.19 37.334C123.052 36.7467 122.164 35.8551 121.526 34.6592C120.889 33.4561 120.57 31.9378 120.57 30.1045C120.57 28.4574 120.885 27.0358 121.516 25.8398C122.146 24.6367 123.073 23.7093 124.298 23.0576C125.53 22.3988 127.037 22.0693 128.82 22.0693C129.801 22.0693 130.732 22.1624 131.613 22.3486C132.494 22.5348 133.26 22.7712 133.912 23.0576L132.569 26.3877C132.004 26.1084 131.416 25.9007 130.808 25.7646C130.199 25.6214 129.544 25.5498 128.842 25.5498C127.904 25.5498 127.148 25.7611 126.575 26.1836C126.009 26.6061 125.598 27.1719 125.34 27.8809C125.082 28.5827 124.953 29.3597 124.953 30.2119C124.953 31.1859 125.089 32.0094 125.361 32.6826C125.641 33.3486 126.045 33.8571 126.575 34.208C127.112 34.5518 127.76 34.7236 128.52 34.7236C128.77 34.7236 129.075 34.7057 129.433 34.6699C129.798 34.6341 130.074 34.5911 130.26 34.541V32.0811H127.456V28.8047Z" fill="#0085FF"/>
<path d="M148.598 34.5312C148.598 35.151 148.441 35.7396 148.129 36.2969C147.816 36.849 147.329 37.2969 146.668 37.6406C146.012 37.9844 145.163 38.1562 144.121 38.1562C143.6 38.1562 143.142 38.1328 142.746 38.0859C142.355 38.0391 141.991 37.9635 141.652 37.8594C141.314 37.75 140.962 37.6094 140.598 37.4375V34.6875C141.217 35 141.842 35.2396 142.473 35.4062C143.103 35.5677 143.673 35.6484 144.184 35.6484C144.491 35.6484 144.741 35.612 144.934 35.5391C145.132 35.4661 145.277 35.3672 145.371 35.2422C145.465 35.112 145.512 34.9635 145.512 34.7969C145.512 34.599 145.441 34.4323 145.301 34.2969C145.165 34.1562 144.947 34.0104 144.645 33.8594C144.342 33.7083 143.944 33.5208 143.449 33.2969C143.027 33.099 142.645 32.8958 142.301 32.6875C141.962 32.4792 141.671 32.2422 141.426 31.9766C141.186 31.7057 141.001 31.3906 140.871 31.0312C140.741 30.6719 140.676 30.2474 140.676 29.7578C140.676 29.0234 140.855 28.4089 141.215 27.9141C141.579 27.4141 142.085 27.0391 142.73 26.7891C143.382 26.5391 144.132 26.4141 144.98 26.4141C145.725 26.4141 146.395 26.4974 146.988 26.6641C147.587 26.8307 148.124 27.0208 148.598 27.2344L147.652 29.6172C147.163 29.3932 146.681 29.2161 146.207 29.0859C145.733 28.9505 145.293 28.8828 144.887 28.8828C144.621 28.8828 144.402 28.9167 144.23 28.9844C144.064 29.0469 143.939 29.1328 143.855 29.2422C143.777 29.3516 143.738 29.4766 143.738 29.6172C143.738 29.7943 143.806 29.9531 143.941 30.0938C144.082 30.2344 144.314 30.388 144.637 30.5547C144.965 30.7161 145.41 30.9271 145.973 31.1875C146.53 31.4375 147.004 31.7083 147.395 32C147.785 32.2865 148.082 32.6328 148.285 33.0391C148.493 33.4401 148.598 33.9375 148.598 34.5312ZM161.051 32.2734C161.051 33.1536 160.944 33.9557 160.73 34.6797C160.522 35.3984 160.194 36.0182 159.746 36.5391C159.298 37.0599 158.723 37.4609 158.02 37.7422C157.316 38.0182 156.475 38.1562 155.496 38.1562C154.538 38.1562 153.707 38.0182 153.004 37.7422C152.306 37.4609 151.73 37.0625 151.277 36.5469C150.824 36.026 150.488 35.4036 150.27 34.6797C150.051 33.9557 149.941 33.1484 149.941 32.2578C149.941 31.0703 150.137 30.0391 150.527 29.1641C150.923 28.2839 151.533 27.6042 152.355 27.125C153.178 26.6406 154.23 26.3984 155.512 26.3984C156.814 26.3984 157.871 26.6406 158.684 27.125C159.501 27.6094 160.1 28.2917 160.48 29.1719C160.861 30.0521 161.051 31.0859 161.051 32.2734ZM153.191 32.2734C153.191 32.9609 153.27 33.5521 153.426 34.0469C153.582 34.5417 153.829 34.9219 154.168 35.1875C154.507 35.4531 154.949 35.5859 155.496 35.5859C156.064 35.5859 156.514 35.4531 156.848 35.1875C157.186 34.9219 157.428 34.5417 157.574 34.0469C157.725 33.5521 157.801 32.9609 157.801 32.2734C157.801 31.2422 157.629 30.4271 157.285 29.8281C156.941 29.2292 156.35 28.9297 155.512 28.9297C154.954 28.9297 154.504 29.0651 154.16 29.3359C153.822 29.6068 153.574 29.9922 153.418 30.4922C153.267 30.9922 153.191 31.5859 153.191 32.2734ZM168.09 38L165.754 29.7734H165.684C165.704 29.987 165.725 30.276 165.746 30.6406C165.772 31.0052 165.796 31.3984 165.816 31.8203C165.837 32.2422 165.848 32.6484 165.848 33.0391V38H163.113V26.5781H167.223L169.605 34.6875H169.668L172.004 26.5781H176.121V38H173.285V32.9922C173.285 32.6328 173.29 32.2474 173.301 31.8359C173.316 31.4193 173.332 31.0286 173.348 30.6641C173.368 30.2943 173.387 30.0026 173.402 29.7891H173.332L171.027 38H168.09ZM185.363 38H178.582V26.5781H185.363V29.0547H181.668V30.8516H185.09V33.3281H181.668V35.4844H185.363V38ZM192.402 38H189.316V29.1016H186.527V26.5781H195.184V29.1016H192.402V38ZM206.605 38H203.504V33.3438H199.918V38H196.816V26.5781H199.918V30.8125H203.504V26.5781H206.605V38ZM209.082 38V26.5781H212.184V38H209.082ZM225.535 38H221.488L217.316 29.9531H217.246C217.272 30.1979 217.296 30.4922 217.316 30.8359C217.337 31.1797 217.355 31.5312 217.371 31.8906C217.387 32.2448 217.395 32.5651 217.395 32.8516V38H214.66V26.5781H218.691L222.848 34.5156H222.895C222.879 34.2656 222.863 33.9766 222.848 33.6484C222.832 33.3151 222.816 32.9792 222.801 32.6406C222.79 32.3021 222.785 32.0026 222.785 31.7422V26.5781H225.535V38ZM232.59 31.3125H237.52V37.4688C236.931 37.6719 236.257 37.8385 235.496 37.9688C234.736 38.0938 233.939 38.1562 233.105 38.1562C232.007 38.1562 231.043 37.9427 230.215 37.5156C229.387 37.0885 228.741 36.4401 228.277 35.5703C227.814 34.6953 227.582 33.5911 227.582 32.2578C227.582 31.0599 227.811 30.026 228.27 29.1562C228.728 28.2812 229.402 27.6068 230.293 27.1328C231.189 26.6536 232.285 26.4141 233.582 26.4141C234.296 26.4141 234.973 26.4818 235.613 26.6172C236.254 26.7526 236.811 26.9245 237.285 27.1328L236.309 29.5547C235.897 29.3516 235.47 29.2005 235.027 29.1016C234.585 28.9974 234.108 28.9453 233.598 28.9453C232.915 28.9453 232.366 29.099 231.949 29.4062C231.538 29.7135 231.238 30.125 231.051 30.6406C230.863 31.151 230.77 31.7161 230.77 32.3359C230.77 33.0443 230.868 33.6432 231.066 34.1328C231.27 34.6172 231.564 34.987 231.949 35.2422C232.34 35.4922 232.811 35.6172 233.363 35.6172C233.546 35.6172 233.767 35.6042 234.027 35.5781C234.293 35.5521 234.493 35.5208 234.629 35.4844V33.6953H232.59V31.3125Z" fill="black"/>
<path d="M108.32 45.9453C107.956 45.9453 107.63 46.0234 107.344 46.1797C107.057 46.3307 106.812 46.5521 106.609 46.8438C106.406 47.1354 106.25 47.4922 106.141 47.9141C106.036 48.3307 105.984 48.8047 105.984 49.3359C105.984 50.0547 106.076 50.6589 106.258 51.1484C106.44 51.638 106.716 52.0078 107.086 52.2578C107.461 52.5078 107.93 52.6328 108.492 52.6328C109.003 52.6328 109.492 52.5625 109.961 52.4219C110.435 52.2812 110.911 52.112 111.391 51.9141V54.5234C110.885 54.7474 110.367 54.9089 109.836 55.0078C109.31 55.1068 108.75 55.1562 108.156 55.1562C106.917 55.1562 105.901 54.9115 105.109 54.4219C104.323 53.9271 103.742 53.2422 103.367 52.3672C102.997 51.4922 102.812 50.4766 102.812 49.3203C102.812 48.4557 102.932 47.6641 103.172 46.9453C103.417 46.2266 103.773 45.6042 104.242 45.0781C104.711 44.5469 105.289 44.138 105.977 43.8516C106.669 43.5599 107.461 43.4141 108.352 43.4141C108.904 43.4141 109.484 43.4792 110.094 43.6094C110.708 43.7344 111.307 43.9375 111.891 44.2188L110.945 46.6484C110.529 46.4505 110.107 46.2839 109.68 46.1484C109.253 46.013 108.799 45.9453 108.32 45.9453ZM124.312 49.2734C124.312 50.1536 124.206 50.9557 123.992 51.6797C123.784 52.3984 123.456 53.0182 123.008 53.5391C122.56 54.0599 121.984 54.4609 121.281 54.7422C120.578 55.0182 119.737 55.1562 118.758 55.1562C117.799 55.1562 116.969 55.0182 116.266 54.7422C115.568 54.4609 114.992 54.0625 114.539 53.5469C114.086 53.026 113.75 52.4036 113.531 51.6797C113.312 50.9557 113.203 50.1484 113.203 49.2578C113.203 48.0703 113.398 47.0391 113.789 46.1641C114.185 45.2839 114.794 44.6042 115.617 44.125C116.44 43.6406 117.492 43.3984 118.773 43.3984C120.076 43.3984 121.133 43.6406 121.945 44.125C122.763 44.6094 123.362 45.2917 123.742 46.1719C124.122 47.0521 124.312 48.0859 124.312 49.2734ZM116.453 49.2734C116.453 49.9609 116.531 50.5521 116.688 51.0469C116.844 51.5417 117.091 51.9219 117.43 52.1875C117.768 52.4531 118.211 52.5859 118.758 52.5859C119.326 52.5859 119.776 52.4531 120.109 52.1875C120.448 51.9219 120.69 51.5417 120.836 51.0469C120.987 50.5521 121.062 49.9609 121.062 49.2734C121.062 48.2422 120.891 47.4271 120.547 46.8281C120.203 46.2292 119.612 45.9297 118.773 45.9297C118.216 45.9297 117.766 46.0651 117.422 46.3359C117.083 46.6068 116.836 46.9922 116.68 47.4922C116.529 47.9922 116.453 48.5859 116.453 49.2734ZM131.352 55L129.016 46.7734H128.945C128.966 46.987 128.987 47.276 129.008 47.6406C129.034 48.0052 129.057 48.3984 129.078 48.8203C129.099 49.2422 129.109 49.6484 129.109 50.0391V55H126.375V43.5781H130.484L132.867 51.6875H132.93L135.266 43.5781H139.383V55H136.547V49.9922C136.547 49.6328 136.552 49.2474 136.562 48.8359C136.578 48.4193 136.594 48.0286 136.609 47.6641C136.63 47.2943 136.648 47.0026 136.664 46.7891H136.594L134.289 55H131.352ZM145.797 43.5781C147.245 43.5781 148.328 43.8932 149.047 44.5234C149.771 45.1536 150.133 46.0495 150.133 47.2109C150.133 47.7318 150.057 48.2318 149.906 48.7109C149.76 49.1901 149.518 49.6172 149.18 49.9922C148.846 50.3672 148.401 50.6641 147.844 50.8828C147.292 51.1016 146.609 51.2109 145.797 51.2109H144.93V55H141.844V43.5781H145.797ZM145.727 46.0703H144.93V48.6953H145.539C145.805 48.6953 146.052 48.651 146.281 48.5625C146.51 48.4688 146.693 48.3203 146.828 48.1172C146.969 47.9089 147.039 47.6328 147.039 47.2891C147.039 46.9297 146.932 46.638 146.719 46.4141C146.505 46.1849 146.174 46.0703 145.727 46.0703ZM158.961 55L158.398 52.8594H154.688L154.109 55H150.719L154.445 43.5312H158.562L162.336 55H158.961ZM157.758 50.3281L157.266 48.4531C157.214 48.25 157.138 47.9609 157.039 47.5859C156.94 47.2057 156.841 46.8151 156.742 46.4141C156.648 46.0078 156.576 45.6745 156.523 45.4141C156.477 45.6745 156.409 45.9974 156.32 46.3828C156.237 46.763 156.148 47.1406 156.055 47.5156C155.966 47.8906 155.888 48.2031 155.82 48.4531L155.328 50.3281H157.758ZM174.453 55H170.406L166.234 46.9531H166.164C166.19 47.1979 166.214 47.4922 166.234 47.8359C166.255 48.1797 166.273 48.5312 166.289 48.8906C166.305 49.2448 166.312 49.5651 166.312 49.8516V55H163.578V43.5781H167.609L171.766 51.5156H171.812C171.797 51.2656 171.781 50.9766 171.766 50.6484C171.75 50.3151 171.734 49.9792 171.719 49.6406C171.708 49.3021 171.703 49.0026 171.703 48.7422V43.5781H174.453V55ZM181 47.8125L182.969 43.5781H186.312L182.555 50.5391V55H179.445V50.6328L175.688 43.5781H179.047L181 47.8125Z" fill="black"/>
</svg>
