<svg width="198" height="57" viewBox="0 0 198 57" fill="none" xmlns="http://www.w3.org/2000/svg">
<path d="M5.11328 15H2.99414V6.76953H0.280273V5.00586H7.82715V6.76953H5.11328V15ZM17.5547 15H15.4424V10.6865H11.4844V15H9.36523V5.00586H11.4844V8.92285H15.4424V5.00586H17.5547V15ZM25.8398 15H20.084V5.00586H25.8398V6.74219H22.2031V8.93652H25.5869V10.6729H22.2031V13.25H25.8398V15Z" fill="black"/>
<path d="M9.20215 30.4316C9.20215 31.1934 9.01758 31.8555 8.64844 32.418C8.2793 32.9805 7.74023 33.4141 7.03125 33.7188C6.32812 34.0234 5.47266 34.1758 4.46484 34.1758C4.01953 34.1758 3.58301 34.1465 3.15527 34.0879C2.7334 34.0293 2.32617 33.9443 1.93359 33.833C1.54688 33.7158 1.17773 33.5723 0.826172 33.4023V30.8711C1.43555 31.1406 2.06836 31.3838 2.72461 31.6006C3.38086 31.8174 4.03125 31.9258 4.67578 31.9258C5.12109 31.9258 5.47852 31.8672 5.74805 31.75C6.02344 31.6328 6.22266 31.4717 6.3457 31.2666C6.46875 31.0615 6.53027 30.8271 6.53027 30.5635C6.53027 30.2412 6.42188 29.9658 6.20508 29.7373C5.98828 29.5088 5.68945 29.2949 5.30859 29.0957C4.93359 28.8965 4.50879 28.6826 4.03418 28.4541C3.73535 28.3135 3.41016 28.1436 3.05859 27.9443C2.70703 27.7393 2.37305 27.4902 2.05664 27.1973C1.74023 26.9043 1.47949 26.5498 1.27441 26.1338C1.0752 25.7119 0.975586 25.208 0.975586 24.6221C0.975586 23.8545 1.15137 23.1982 1.50293 22.6533C1.85449 22.1084 2.35547 21.6924 3.00586 21.4053C3.66211 21.1123 4.43555 20.9658 5.32617 20.9658C5.99414 20.9658 6.62988 21.0449 7.2334 21.2031C7.84277 21.3555 8.47852 21.5781 9.14062 21.8711L8.26172 23.9893C7.66992 23.749 7.13965 23.5645 6.6709 23.4355C6.20215 23.3008 5.72461 23.2334 5.23828 23.2334C4.89844 23.2334 4.6084 23.2891 4.36816 23.4004C4.12793 23.5059 3.94629 23.6582 3.82324 23.8574C3.7002 24.0508 3.63867 24.2764 3.63867 24.5342C3.63867 24.8389 3.72656 25.0967 3.90234 25.3076C4.08398 25.5127 4.35352 25.7119 4.71094 25.9053C5.07422 26.0986 5.52539 26.3242 6.06445 26.582C6.7207 26.8926 7.28027 27.2178 7.74316 27.5576C8.21191 27.8916 8.57227 28.2871 8.82422 28.7441C9.07617 29.1953 9.20215 29.7578 9.20215 30.4316ZM23.1943 27.5576C23.1943 28.5479 23.0713 29.4502 22.8252 30.2646C22.5791 31.0732 22.2041 31.7705 21.7002 32.3564C21.2021 32.9424 20.5693 33.3936 19.8018 33.71C19.0342 34.0205 18.126 34.1758 17.0771 34.1758C16.0283 34.1758 15.1201 34.0205 14.3525 33.71C13.585 33.3936 12.9492 32.9424 12.4453 32.3564C11.9473 31.7705 11.5752 31.0703 11.3291 30.2559C11.083 29.4414 10.96 28.5361 10.96 27.54C10.96 26.21 11.1768 25.0527 11.6104 24.0684C12.0498 23.0781 12.7236 22.3105 13.6318 21.7656C14.54 21.2207 15.6943 20.9482 17.0947 20.9482C18.4893 20.9482 19.6348 21.2207 20.5312 21.7656C21.4336 22.3105 22.1016 23.0781 22.5352 24.0684C22.9746 25.0586 23.1943 26.2217 23.1943 27.5576ZM13.8164 27.5576C13.8164 28.4541 13.9277 29.2275 14.1504 29.8779C14.3789 30.5225 14.7334 31.0205 15.2139 31.3721C15.6943 31.7178 16.3154 31.8906 17.0771 31.8906C17.8506 31.8906 18.4775 31.7178 18.958 31.3721C19.4385 31.0205 19.7871 30.5225 20.0039 29.8779C20.2266 29.2275 20.3379 28.4541 20.3379 27.5576C20.3379 26.21 20.0859 25.1494 19.582 24.376C19.0781 23.6025 18.249 23.2158 17.0947 23.2158C16.3271 23.2158 15.7002 23.3916 15.2139 23.7432C14.7334 24.0889 14.3789 24.5869 14.1504 25.2373C13.9277 25.8818 13.8164 26.6553 13.8164 27.5576ZM31.2979 34L28.2041 23.9189H28.125C28.1367 24.1592 28.1543 24.5225 28.1777 25.0088C28.207 25.4893 28.2334 26.002 28.2568 26.5469C28.2803 27.0918 28.292 27.584 28.292 28.0234V34H25.8574V21.1504H29.5664L32.6074 30.9766H32.6602L35.8857 21.1504H39.5947V34H37.0547V27.918C37.0547 27.5137 37.0605 27.0479 37.0723 26.5205C37.0898 25.9932 37.1104 25.4922 37.1338 25.0176C37.1572 24.5371 37.1748 24.1768 37.1865 23.9365H37.1074L33.7939 34H31.2979ZM50.2383 34H42.8379V21.1504H50.2383V23.3828H45.5625V26.2041H49.9131V28.4365H45.5625V31.75H50.2383V34ZM57.8848 34H55.1602V23.418H51.6709V21.1504H61.374V23.418H57.8848V34ZM73.8809 34H71.165V28.4541H66.0762V34H63.3516V21.1504H66.0762V26.1865H71.165V21.1504H73.8809V34ZM77.1328 34V21.1504H79.8574V34H77.1328ZM94.4912 34H91.0283L85.4385 24.2793H85.3594C85.3828 24.6836 85.4033 25.0908 85.4209 25.501C85.4385 25.9111 85.4561 26.3213 85.4736 26.7314C85.4912 27.1357 85.5088 27.543 85.5264 27.9531V34H83.0918V21.1504H86.5283L92.1094 30.7744H92.1709C92.1592 30.376 92.1445 29.9805 92.127 29.5879C92.1094 29.1953 92.0918 28.8027 92.0742 28.4102C92.0625 28.0176 92.0508 27.625 92.0391 27.2324V21.1504H94.4912V34ZM102.612 26.7842H107.71V33.4463C107.036 33.6689 106.336 33.8477 105.609 33.9824C104.883 34.1113 104.06 34.1758 103.14 34.1758C101.862 34.1758 100.778 33.9238 99.8877 33.4199C98.9971 32.916 98.3203 32.1719 97.8574 31.1875C97.3945 30.2031 97.1631 28.9932 97.1631 27.5576C97.1631 26.21 97.4209 25.0439 97.9365 24.0596C98.458 23.0752 99.2168 22.3135 100.213 21.7744C101.215 21.2354 102.437 20.9658 103.878 20.9658C104.558 20.9658 105.229 21.0391 105.891 21.1855C106.553 21.332 107.153 21.5225 107.692 21.7568L106.787 23.9365C106.395 23.7373 105.946 23.5703 105.442 23.4355C104.938 23.3008 104.411 23.2334 103.86 23.2334C103.069 23.2334 102.381 23.415 101.795 23.7783C101.215 24.1416 100.764 24.6514 100.441 25.3076C100.125 25.958 99.9668 26.7256 99.9668 27.6104C99.9668 28.4482 100.081 29.1924 100.31 29.8428C100.538 30.4873 100.898 30.9941 101.391 31.3633C101.883 31.7266 102.524 31.9082 103.315 31.9082C103.702 31.9082 104.027 31.8906 104.291 31.8555C104.561 31.8145 104.812 31.7734 105.047 31.7324V29.0518H102.612V26.7842Z" fill="#0085FF"/>
<path d="M119.954 31.2246C119.954 31.8171 119.811 32.332 119.523 32.7695C119.236 33.207 118.817 33.5443 118.266 33.7812C117.719 34.0182 117.053 34.1367 116.27 34.1367C115.923 34.1367 115.584 34.1139 115.251 34.0684C114.923 34.0228 114.606 33.9567 114.301 33.8701C114 33.779 113.713 33.6673 113.439 33.5352V31.5664C113.913 31.776 114.406 31.9652 114.916 32.1338C115.426 32.3024 115.932 32.3867 116.434 32.3867C116.78 32.3867 117.058 32.3411 117.268 32.25C117.482 32.1589 117.637 32.0335 117.732 31.874C117.828 31.7145 117.876 31.5322 117.876 31.3271C117.876 31.0765 117.792 30.8623 117.623 30.6846C117.454 30.5068 117.222 30.3405 116.926 30.1855C116.634 30.0306 116.304 29.8643 115.935 29.6865C115.702 29.5771 115.449 29.445 115.176 29.29C114.902 29.1305 114.643 28.9368 114.396 28.709C114.15 28.4811 113.948 28.2054 113.788 27.8818C113.633 27.5537 113.556 27.1618 113.556 26.7061C113.556 26.109 113.692 25.5986 113.966 25.1748C114.239 24.751 114.629 24.4274 115.135 24.2041C115.645 23.9762 116.247 23.8623 116.939 23.8623C117.459 23.8623 117.953 23.9238 118.423 24.0469C118.897 24.1654 119.391 24.3385 119.906 24.5664L119.223 26.2139C118.762 26.027 118.35 25.8835 117.985 25.7832C117.621 25.6784 117.249 25.626 116.871 25.626C116.607 25.626 116.381 25.6693 116.194 25.7559C116.007 25.8379 115.866 25.9564 115.771 26.1113C115.675 26.2617 115.627 26.4372 115.627 26.6377C115.627 26.8747 115.695 27.0752 115.832 27.2393C115.973 27.3988 116.183 27.5537 116.461 27.7041C116.743 27.8545 117.094 28.0299 117.514 28.2305C118.024 28.472 118.459 28.7249 118.819 28.9893C119.184 29.249 119.464 29.5566 119.66 29.9121C119.856 30.263 119.954 30.7005 119.954 31.2246ZM130.837 28.9893C130.837 29.7594 130.741 30.4613 130.55 31.0947C130.358 31.7236 130.067 32.266 129.675 32.7217C129.287 33.1774 128.795 33.5283 128.198 33.7744C127.601 34.016 126.895 34.1367 126.079 34.1367C125.263 34.1367 124.557 34.016 123.96 33.7744C123.363 33.5283 122.868 33.1774 122.477 32.7217C122.089 32.266 121.8 31.7214 121.608 31.0879C121.417 30.4544 121.321 29.7503 121.321 28.9756C121.321 27.9411 121.49 27.041 121.827 26.2754C122.169 25.5052 122.693 24.9082 123.399 24.4844C124.106 24.0605 125.004 23.8486 126.093 23.8486C127.177 23.8486 128.068 24.0605 128.766 24.4844C129.467 24.9082 129.987 25.5052 130.324 26.2754C130.666 27.0456 130.837 27.9502 130.837 28.9893ZM123.543 28.9893C123.543 29.6865 123.63 30.2881 123.803 30.7939C123.98 31.2952 124.256 31.6826 124.63 31.9561C125.004 32.2249 125.487 32.3594 126.079 32.3594C126.681 32.3594 127.168 32.2249 127.542 31.9561C127.916 31.6826 128.187 31.2952 128.355 30.7939C128.529 30.2881 128.615 29.6865 128.615 28.9893C128.615 27.9411 128.419 27.1162 128.027 26.5146C127.635 25.9131 126.991 25.6123 126.093 25.6123C125.496 25.6123 125.008 25.749 124.63 26.0225C124.256 26.2913 123.98 26.6787 123.803 27.1846C123.63 27.6859 123.543 28.2874 123.543 28.9893ZM137.14 34L134.733 26.1592H134.672C134.681 26.346 134.695 26.6286 134.713 27.0068C134.736 27.3805 134.756 27.7793 134.774 28.2031C134.793 28.627 134.802 29.0098 134.802 29.3516V34H132.908V24.0059H135.793L138.158 31.6484H138.199L140.708 24.0059H143.593V34H141.617V29.2695C141.617 28.9551 141.622 28.5928 141.631 28.1826C141.645 27.7725 141.66 27.3828 141.679 27.0137C141.697 26.64 141.711 26.3597 141.72 26.1729H141.658L139.081 34H137.14ZM151.871 34H146.115V24.0059H151.871V25.7422H148.234V27.9365H151.618V29.6729H148.234V32.25H151.871V34ZM157.818 34H155.699V25.7695H152.985V24.0059H160.532V25.7695H157.818V34ZM170.26 34H168.147V29.6865H164.189V34H162.07V24.0059H164.189V27.9229H168.147V24.0059H170.26V34ZM172.789 34V24.0059H174.908V34H172.789ZM186.29 34H183.597L179.249 26.4395H179.188C179.206 26.7539 179.222 27.0706 179.235 27.3896C179.249 27.7087 179.263 28.0277 179.276 28.3467C179.29 28.6611 179.304 28.9779 179.317 29.2969V34H177.424V24.0059H180.097L184.438 31.4912H184.485C184.476 31.1813 184.465 30.8737 184.451 30.5684C184.438 30.263 184.424 29.9577 184.41 29.6523C184.401 29.347 184.392 29.0417 184.383 28.7363V24.0059H186.29V34ZM192.606 28.3877H196.571V33.5693C196.047 33.7425 195.503 33.8815 194.938 33.9863C194.372 34.0866 193.732 34.1367 193.017 34.1367C192.023 34.1367 191.18 33.9408 190.487 33.5488C189.795 33.1569 189.268 32.5781 188.908 31.8125C188.548 31.0469 188.368 30.1058 188.368 28.9893C188.368 27.9411 188.569 27.0342 188.97 26.2686C189.375 25.5029 189.965 24.9105 190.74 24.4912C191.52 24.0719 192.47 23.8623 193.591 23.8623C194.119 23.8623 194.641 23.9193 195.156 24.0332C195.671 24.1471 196.138 24.2952 196.558 24.4775L195.854 26.1729C195.548 26.0179 195.2 25.888 194.808 25.7832C194.416 25.6784 194.006 25.626 193.577 25.626C192.962 25.626 192.426 25.7673 191.971 26.0498C191.52 26.3324 191.169 26.7288 190.918 27.2393C190.672 27.7451 190.549 28.3421 190.549 29.0303C190.549 29.682 190.638 30.2607 190.815 30.7666C190.993 31.2679 191.273 31.6621 191.656 31.9492C192.039 32.2318 192.538 32.373 193.153 32.373C193.454 32.373 193.707 32.3594 193.912 32.332C194.122 32.3001 194.318 32.2682 194.5 32.2363V30.1514H192.606V28.3877Z" fill="black"/>
<path d="M131.503 44.626C131.097 44.626 130.737 44.7057 130.423 44.8652C130.113 45.0202 129.851 45.2458 129.637 45.542C129.427 45.8382 129.268 46.196 129.158 46.6152C129.049 47.0345 128.994 47.5062 128.994 48.0303C128.994 48.7367 129.081 49.3405 129.254 49.8418C129.432 50.3385 129.705 50.7191 130.074 50.9834C130.443 51.2432 130.92 51.373 131.503 51.373C131.909 51.373 132.314 51.3275 132.72 51.2363C133.13 51.1452 133.574 51.0153 134.053 50.8467V52.624C133.611 52.8063 133.175 52.9362 132.747 53.0137C132.319 53.0957 131.838 53.1367 131.305 53.1367C130.275 53.1367 129.427 52.9248 128.762 52.501C128.101 52.0726 127.611 51.4756 127.292 50.71C126.973 49.9398 126.813 49.042 126.813 48.0166C126.813 47.2601 126.916 46.5674 127.121 45.9385C127.326 45.3096 127.627 44.765 128.023 44.3047C128.42 43.8444 128.91 43.4889 129.493 43.2383C130.076 42.9876 130.746 42.8623 131.503 42.8623C132 42.8623 132.496 42.9261 132.993 43.0537C133.494 43.1768 133.973 43.3477 134.429 43.5664L133.745 45.2891C133.371 45.1113 132.995 44.9564 132.617 44.8242C132.239 44.6921 131.868 44.626 131.503 44.626ZM145.257 47.9893C145.257 48.7594 145.161 49.4613 144.97 50.0947C144.778 50.7236 144.487 51.266 144.095 51.7217C143.707 52.1774 143.215 52.5283 142.618 52.7744C142.021 53.016 141.315 53.1367 140.499 53.1367C139.683 53.1367 138.977 53.016 138.38 52.7744C137.783 52.5283 137.288 52.1774 136.896 51.7217C136.509 51.266 136.22 50.7214 136.028 50.0879C135.837 49.4544 135.741 48.7503 135.741 47.9756C135.741 46.9411 135.91 46.041 136.247 45.2754C136.589 44.5052 137.113 43.9082 137.819 43.4844C138.526 43.0605 139.424 42.8486 140.513 42.8486C141.597 42.8486 142.488 43.0605 143.186 43.4844C143.887 43.9082 144.407 44.5052 144.744 45.2754C145.086 46.0456 145.257 46.9502 145.257 47.9893ZM137.963 47.9893C137.963 48.6865 138.049 49.2881 138.223 49.7939C138.4 50.2952 138.676 50.6826 139.05 50.9561C139.424 51.2249 139.907 51.3594 140.499 51.3594C141.101 51.3594 141.588 51.2249 141.962 50.9561C142.336 50.6826 142.607 50.2952 142.775 49.7939C142.949 49.2881 143.035 48.6865 143.035 47.9893C143.035 46.9411 142.839 46.1162 142.447 45.5146C142.055 44.9131 141.41 44.6123 140.513 44.6123C139.916 44.6123 139.428 44.749 139.05 45.0225C138.676 45.2913 138.4 45.6787 138.223 46.1846C138.049 46.6859 137.963 47.2874 137.963 47.9893ZM151.56 53L149.153 45.1592H149.092C149.101 45.346 149.115 45.6286 149.133 46.0068C149.156 46.3805 149.176 46.7793 149.194 47.2031C149.213 47.627 149.222 48.0098 149.222 48.3516V53H147.328V43.0059H150.213L152.578 50.6484H152.619L155.128 43.0059H158.013V53H156.037V48.2695C156.037 47.9551 156.042 47.5928 156.051 47.1826C156.064 46.7725 156.08 46.3828 156.099 46.0137C156.117 45.64 156.131 45.3597 156.14 45.1729H156.078L153.501 53H151.56ZM163.728 43.0059C165.017 43.0059 165.958 43.2839 166.551 43.8398C167.143 44.3913 167.439 45.1523 167.439 46.123C167.439 46.5605 167.373 46.9798 167.241 47.3809C167.109 47.7773 166.893 48.1305 166.592 48.4404C166.296 48.7503 165.899 48.9964 165.402 49.1787C164.906 49.3564 164.293 49.4453 163.563 49.4453H162.654V53H160.535V43.0059H163.728ZM163.618 44.7422H162.654V47.709H163.352C163.748 47.709 164.092 47.6566 164.384 47.5518C164.675 47.4469 164.901 47.2829 165.061 47.0596C165.22 46.8363 165.3 46.5492 165.3 46.1982C165.3 45.7061 165.163 45.3415 164.89 45.1045C164.616 44.863 164.192 44.7422 163.618 44.7422ZM175.444 53L174.72 50.6211H171.076L170.352 53H168.068L171.596 42.9648H174.187L177.728 53H175.444ZM174.214 48.8438L173.489 46.5195C173.444 46.3646 173.382 46.1663 173.305 45.9248C173.232 45.6787 173.157 45.4303 173.079 45.1797C173.006 44.9245 172.947 44.7035 172.901 44.5166C172.856 44.7035 172.792 44.9359 172.71 45.2139C172.632 45.4873 172.557 45.7471 172.484 45.9932C172.411 46.2393 172.359 46.4147 172.327 46.5195L171.609 48.8438H174.214ZM187.858 53H185.165L180.817 45.4395H180.756C180.774 45.7539 180.79 46.0706 180.804 46.3896C180.817 46.7087 180.831 47.0277 180.845 47.3467C180.858 47.6611 180.872 47.9779 180.886 48.2969V53H178.992V43.0059H181.665L186.006 50.4912H186.054C186.045 50.1813 186.033 49.8737 186.02 49.5684C186.006 49.263 185.992 48.9577 185.979 48.6523C185.969 48.347 185.96 48.0417 185.951 47.7363V43.0059H187.858V53ZM193.491 47.1211L195.576 43.0059H197.859L194.544 49.1104V53H192.438V49.1787L189.123 43.0059H191.42L193.491 47.1211Z" fill="black"/>
</svg>
