<svg width="1006" height="470" viewBox="0 0 1006 470" fill="none" xmlns="http://www.w3.org/2000/svg">
<mask id="mask0_585_604" style="mask-type:alpha" maskUnits="userSpaceOnUse" x="791" y="47" width="83" height="83">
<rect x="791" y="47" width="82.434" height="82.434" rx="41.217" fill="#009C93"/>
</mask>
<g mask="url(#mask0_585_604)">
<path d="M861.461 95.0485C860.313 79.9249 849.613 69.4893 831.785 69.4893C813.957 69.4893 803.233 80.5713 802.179 95.7007C801.564 104.517 804.862 112.373 811.497 116.852C815.866 119.804 821.969 121.44 831.861 121.44C841.923 121.44 847.692 119.28 852.061 116.357C859.341 111.494 862.123 103.737 861.461 95.0485Z" fill="#FFF2F2" stroke="white"/>
<path d="M825.764 78.9821C821.418 67.801 811.93 60.1956 808.282 59.06C806.905 58.6291 805.177 58.5883 804.398 59.8462C802.431 63.02 799.912 73.2111 805.482 87.6707L825.764 78.9821Z" fill="#FFF2F2" stroke="white"/>
<path d="M815.456 74.0962C816.358 73.345 816.797 72.6112 815.808 71.0913C814.273 68.7328 811.515 65.9783 810.443 65.1339C808.686 63.7479 807.327 63.282 806.806 65.5124C805.839 69.6354 805.915 75.2318 806.952 78.3182C807.315 79.4072 808.44 79.9837 809.307 79.2325L815.456 74.0962Z" fill="#FFD1D1" stroke="white"/>
<path d="M825.998 80.3911C826.66 80.9502 828.001 80.8687 828.78 79.9718C829.723 78.8828 830.707 75.2141 830.092 69.542C827.357 69.641 824.768 70.0312 822.355 70.6892C824.305 73.8688 824.774 79.3545 825.998 80.3911Z" fill="#FF9B31" stroke="white"/>
<path d="M837.571 80.3911C836.909 80.9502 835.568 80.8687 834.789 79.9718C833.846 78.8828 832.862 75.2141 833.477 69.542C836.212 69.641 838.801 70.0312 841.214 70.6892C839.264 73.8688 838.795 79.3545 837.571 80.3911Z" fill="#FF9B31" stroke="white"/>
<path d="M841.097 71.1902C845.829 63.9632 852.448 59.1064 855.194 58.2387C856.553 57.8078 858.134 57.8777 858.908 59.1414C860.852 62.3152 862.498 72.0928 858.662 85.7838L844.646 79.0635L841.097 71.1902Z" fill="#FFF2F2" stroke="white"/>
<path d="M851.434 76.4372C852.858 77.8523 854.017 78.8015 854.855 79.7042C855.411 80.304 856.43 80.0303 856.594 79.2267C858.029 72.355 857.572 66.4965 856.594 64.9591C856.126 64.2254 855.253 64.0332 854.457 64.3011C853.027 64.7728 849.385 67.4749 846.813 71.4174C846.515 71.8774 846.626 72.4947 847.083 72.8034C848.008 73.4265 849.625 74.6319 851.434 76.4372Z" fill="#FFD1D1" stroke="white"/>
<path d="M826.906 99.4517C826.877 97.6581 829.465 96.802 831.908 96.7613C834.356 96.7205 836.991 97.5125 837.021 99.3061C837.05 101.1 833.963 103.458 832.019 103.458C830.08 103.458 826.941 101.24 826.906 99.4517Z" fill="black" stroke="white"/>
<path d="M798.226 95.5371C798.425 95.7759 800.808 95.7409 806.636 98.4896" stroke="#9E9E9E" stroke-width="3" stroke-miterlimit="10" stroke-linecap="round"/>
<path d="M796 102.426C796 102.426 799.76 101.123 806.226 102.263" stroke="#9E9E9E" stroke-width="3" stroke-miterlimit="10" stroke-linecap="round"/>
<path d="M799.461 107.918C799.461 107.918 801.066 107.115 806.882 106.608" stroke="#9E9E9E" stroke-width="3" stroke-miterlimit="10" stroke-linecap="round"/>
<path d="M865.093 93.4878C865.093 93.4878 863.095 93.68 856.928 97.1799" stroke="#9E9E9E" stroke-width="3" stroke-miterlimit="10" stroke-linecap="round"/>
<path d="M866 99.8818C866 99.8818 863.019 99.6722 856.6 101.029" stroke="#9E9E9E" stroke-width="3" stroke-miterlimit="10" stroke-linecap="round"/>
<path d="M864.847 106.031C864.847 106.031 862.018 105.035 856.19 104.721" stroke="#9E9E9E" stroke-width="3" stroke-miterlimit="10" stroke-linecap="round"/>
<path d="M850.579 92.8244C850.38 96.0331 848.377 97.7976 846.099 97.7976C843.82 97.7976 841.976 95.5381 841.976 92.7545C841.976 89.9709 843.897 87.6822 846.456 87.822C849.425 87.9909 850.743 90.2038 850.579 92.8244Z" fill="#000200" stroke="white"/>
<path d="M821.242 92.4984C821.699 95.7654 820.317 97.757 818.027 98.2171C815.737 98.6771 813.775 97.1455 813.207 94.3503C812.633 91.5492 813.734 88.9228 816.335 88.5443C819.351 88.1075 820.868 89.8254 821.242 92.4984Z" fill="#000200" stroke="white"/>
<path d="M820.651 103.767C819.146 104.739 820.926 106.993 821.969 107.756C823.011 108.519 824.885 109.456 827.632 109.177C830.877 108.851 831.808 106.446 831.808 106.446C831.808 106.446 832.962 109.124 836.974 109.235C841.044 109.346 842.303 107.156 842.854 106.504C843.404 105.846 843.955 104.151 843.018 103.499C842.081 102.841 841.425 103.662 840.435 105.03C839.445 106.399 837.413 107.162 835.433 106.23C833.454 105.298 833.342 102.13 833.342 102.13L830.537 102.293C830.537 102.293 830.098 105.025 828.833 105.898C827.568 106.772 824.546 106.993 823.281 105.077C822.724 104.227 821.916 102.946 820.651 103.767Z" fill="black" stroke="white"/>
</g>
<g filter="url(#filter0_d_585_604)">
<path d="M672 116C672 108.458 672 104.686 674.343 102.343C676.686 100 680.458 100 688 100H810V133C810 140.542 810 144.314 807.657 146.657C805.314 149 801.542 149 794 149H688C680.458 149 676.686 149 674.343 146.657C672 144.314 672 140.542 672 133V116Z" fill="white"/>
</g>
<path d="M720.346 120.28V131H718.586V121.78H713.046V131H711.286V120.28H720.346ZM728.866 120.08C730.186 120.08 731.246 120.54 732.046 121.46C732.86 122.38 733.266 123.767 733.266 125.62C733.266 126.833 733.08 127.86 732.706 128.7C732.346 129.527 731.833 130.153 731.166 130.58C730.513 130.993 729.74 131.2 728.846 131.2C728.3 131.2 727.813 131.127 727.386 130.98C726.96 130.833 726.593 130.647 726.286 130.42C725.993 130.18 725.74 129.92 725.526 129.64H725.406C725.433 129.867 725.46 130.153 725.486 130.5C725.513 130.847 725.526 131.147 725.526 131.4V135.8H723.766V120.28H725.206L725.446 121.74H725.526C725.74 121.433 725.993 121.153 726.286 120.9C726.593 120.647 726.953 120.447 727.366 120.3C727.793 120.153 728.293 120.08 728.866 120.08ZM728.546 121.56C727.826 121.56 727.246 121.7 726.806 121.98C726.366 122.247 726.046 122.653 725.846 123.2C725.646 123.747 725.54 124.44 725.526 125.28V125.62C725.526 126.5 725.62 127.247 725.806 127.86C725.993 128.473 726.306 128.94 726.746 129.26C727.2 129.58 727.813 129.74 728.586 129.74C729.24 129.74 729.773 129.56 730.186 129.2C730.613 128.84 730.926 128.353 731.126 127.74C731.34 127.113 731.446 126.4 731.446 125.6C731.446 124.373 731.206 123.393 730.726 122.66C730.26 121.927 729.533 121.56 728.546 121.56ZM737.731 126.82C737.731 126.94 737.724 127.113 737.711 127.34C737.711 127.553 737.704 127.787 737.691 128.04C737.678 128.28 737.664 128.513 737.651 128.74C737.638 128.953 737.624 129.127 737.611 129.26L743.351 120.28H745.511V131H743.871V124.68C743.871 124.467 743.871 124.187 743.871 123.84C743.884 123.493 743.898 123.153 743.911 122.82C743.924 122.473 743.938 122.213 743.951 122.04L738.251 131H736.071V120.28H737.731V126.82ZM757.543 122.98C757.543 123.647 757.343 124.167 756.943 124.54C756.543 124.913 756.029 125.167 755.403 125.3V125.38C756.069 125.473 756.649 125.713 757.143 126.1C757.636 126.473 757.883 127.06 757.883 127.86C757.883 128.313 757.796 128.733 757.623 129.12C757.463 129.507 757.209 129.84 756.863 130.12C756.516 130.4 756.069 130.62 755.523 130.78C754.976 130.927 754.316 131 753.543 131H748.923V120.28H753.523C754.283 120.28 754.963 120.367 755.563 120.54C756.176 120.7 756.656 120.98 757.003 121.38C757.363 121.767 757.543 122.3 757.543 122.98ZM756.063 127.86C756.063 127.247 755.829 126.807 755.363 126.54C754.896 126.273 754.209 126.14 753.303 126.14H750.683V129.58H753.343C754.223 129.58 754.896 129.453 755.363 129.2C755.829 128.933 756.063 128.487 756.063 127.86ZM755.763 123.2C755.763 122.693 755.576 122.327 755.203 122.1C754.843 121.86 754.249 121.74 753.423 121.74H750.683V124.68H753.103C753.969 124.68 754.629 124.56 755.083 124.32C755.536 124.08 755.763 123.707 755.763 123.2ZM762.206 120.28V131H760.446V120.28H762.206ZM761.346 116.26C761.613 116.26 761.846 116.353 762.046 116.54C762.259 116.713 762.366 116.993 762.366 117.38C762.366 117.753 762.259 118.033 762.046 118.22C761.846 118.407 761.613 118.5 761.346 118.5C761.053 118.5 760.806 118.407 760.606 118.22C760.406 118.033 760.306 117.753 760.306 117.38C760.306 116.993 760.406 116.713 760.606 116.54C760.806 116.353 761.053 116.26 761.346 116.26ZM773.002 121.76H769.502V131H767.762V121.76H764.302V120.28H773.002V121.76Z" fill="black"/>
<mask id="mask1_585_604" style="mask-type:alpha" maskUnits="userSpaceOnUse" x="923" y="279" width="83" height="83">
<rect x="923" y="279" width="82.434" height="82.434" rx="41.217" fill="#009C93"/>
</mask>
<g mask="url(#mask1_585_604)">
<path d="M961.095 329.839C961.095 329.839 966.993 329.49 966.08 321.488C965.168 313.485 962.291 313.345 961.169 309.347C960.047 305.348 960.023 301.354 959.484 301.065C959.07 300.841 955.834 303.309 955.834 303.309C955.834 303.309 952.838 305.827 952.603 305.134C952.274 304.151 955.131 299.589 955.55 298.677C955.969 297.764 955.794 296.269 953.865 297.415C952.135 298.437 941.789 306.819 942.003 313.345C942.218 319.872 950.006 327.171 950.006 327.171L954.708 322.47L961.095 329.839Z" fill="#4F3B37"/>
<path d="M972.513 340.414C972.513 340.414 977.942 343.55 979.343 344.627C980.744 345.704 982.898 347.434 982.898 347.434C982.898 347.434 981.916 349.912 980.934 350.521C979.952 351.129 978.69 351.318 978.69 351.318C978.69 351.318 977.005 353.098 975.833 353.188C974.662 353.278 973.679 352.675 973.679 352.675C973.679 352.675 972.134 353.238 971.48 353.188C970.827 353.143 968.908 351.642 968.908 351.642L972.513 340.414Z" fill="url(#paint0_linear_585_604)"/>
<path d="M964.181 325.91C964.181 325.91 966.754 326.145 968.02 321.887C969.281 317.629 969.002 314.258 971.435 311.73C973.869 309.202 976.257 308.689 978.874 308.499C981.497 308.31 991.414 307.936 993.897 307.751C996.375 307.562 998.434 306.909 998.669 307.422C998.843 307.806 995.906 312.802 995.906 312.802C995.906 312.802 989.31 312.897 989.17 314.298C989.031 315.704 994.097 314.941 994.131 315.654C994.181 316.636 989.873 322.111 988.328 323.657C986.782 325.202 985.521 325.387 985.007 326.185C984.494 326.982 982.245 333.858 979.577 336.291C976.91 338.724 973.539 338.914 973.539 338.914C973.539 338.914 975.554 341.721 974.896 344.109C974.242 346.497 973.071 349.653 971.665 351.294C970.673 352.456 969.112 353.468 967.546 352.346C965.801 351.094 965.911 348.557 966.33 347.011C966.749 345.465 966.519 344.438 966.519 344.438C966.519 344.438 964.026 347.036 962.54 348.322C960.975 349.678 959.524 351.927 957.485 349.444C955.201 346.667 957.649 345.046 958.587 343.83C959.524 342.613 959.873 342.1 959.873 342.1L956.502 334.985L964.181 325.91Z" fill="#70534C"/>
<path d="M950.953 321.592C949.931 322.614 947.234 325.372 950.814 328.458C954.394 331.544 954.498 333.384 955.446 334.68C956.398 335.987 957.166 337.243 957.764 337.876C958.362 338.51 959.903 339.806 960.397 339.666C960.89 339.527 959.868 335.807 960.117 335.593C960.367 335.378 963.099 337.278 963.523 336.999C963.967 336.7 963.029 333.105 963.244 332.925C963.453 332.751 965.901 334.431 966.225 334.152C966.684 333.768 964.819 326.324 964.645 325.94C964.55 325.736 961.987 323.841 959.803 322.36C957.859 321.044 957.066 320.431 955.241 320.186C953.556 319.962 951.721 320.819 950.953 321.592Z" fill="#FFEAC8"/>
<path d="M950.46 332.965C950.669 332.437 950.918 331.859 952.284 330.841C953.656 329.824 955.809 328.313 955.864 327.84C955.919 327.401 952.997 327.685 952.12 327.615C951.242 327.546 950.25 327.416 949.687 326.962C949.183 326.553 949.173 326.165 949.173 326.165C949.173 326.165 947.029 327.64 946.775 329.346C946.496 331.24 947.124 332.576 948.39 333.489C949.657 334.401 950.185 334.646 950.514 334.471C950.918 334.262 950.46 332.965 950.46 332.965Z" fill="#FFB903"/>
<path d="M949.557 332.347C949.627 331.839 949.806 330.792 950.878 329.74C951.791 328.842 953.371 327.601 953.81 327.601H955.037C955.037 327.601 954.688 328.319 954.054 328.722C953.421 329.126 952.623 329.745 951.616 330.637C950.564 331.569 950.474 332.936 950.474 332.936C950.474 332.936 950.858 334.042 950.564 334.411C950.3 334.726 949.487 332.861 949.557 332.347Z" fill="#FF8E01"/>
<path d="M953.127 325.736C953.167 326.065 953.426 326.718 954.339 326.524C955.097 326.364 955.655 325.332 955.411 324.594C955.211 324.001 954.728 323.876 954.394 324.085C954.06 324.295 953.037 325.018 953.127 325.736Z" fill="#302F2F"/>
<path d="M978.526 350.71C978.416 350.775 977.613 352.186 976.137 352.56C974.662 352.934 974.078 352.186 973.774 352.186C973.47 352.186 972.428 352.829 971.471 352.734C970.723 352.66 969.491 351.598 969.491 351.598L968.978 352.415C968.978 352.415 970.169 353.702 971.505 353.771C972.837 353.841 973.679 353.258 973.679 353.258C973.679 353.258 974.991 353.926 976.372 353.657C978.291 353.283 979.014 351.598 979.014 351.598C979.014 351.598 980.605 351.433 981.657 350.64C982.709 349.842 983.656 347.763 982.953 347.434C982.25 347.105 981.866 348.86 981.024 349.538C980.181 350.216 978.83 350.526 978.526 350.71Z" fill="#70534C"/>
<path d="M951.572 350.775C951.312 350.217 952.369 347.459 955.176 347.554C957.984 347.649 959.27 349.728 959.016 351.787C958.756 353.846 957.4 354.5 957.076 354.265C956.747 354.031 956.398 352.555 956.398 352.555L954.972 350.755C954.962 350.76 952.11 351.922 951.572 350.775Z" fill="#FFB903"/>
<path d="M962.426 353.956C962.042 353.208 962.86 351.568 964.016 350.969C965.447 350.226 966.504 350.187 968.135 351.503C970.324 353.268 968.604 356.409 967.631 356.813C966.28 357.376 966.614 356.818 966.639 356.14C966.664 355.462 966.031 353.732 966.031 353.732L962.426 353.956Z" fill="#FFB903"/>
<path d="M957.071 351.269C957.27 352.012 957.455 354.215 956.966 354.181C956.637 354.156 956.203 352.869 956.019 352.381C955.835 351.892 954.648 351.174 954.204 351.154C953.76 351.129 952.225 351.448 952.18 351.154C952.085 350.576 953.925 349.703 954.648 349.728C955.281 349.743 956.857 350.476 957.071 351.269Z" fill="#F4821E"/>
<path d="M962.406 353.847C962.431 354.38 963.882 354.011 964.465 354.081C965.048 354.151 965.786 354.44 966.115 355.118C966.27 355.437 966.41 356.978 966.734 357.003C967.342 357.048 967.507 354.954 967.437 354.764C967.227 354.196 966.41 352.785 964.814 352.63C963.971 352.54 962.391 353.567 962.406 353.847Z" fill="#F4821E"/>
</g>
<g filter="url(#filter1_d_585_604)">
<path d="M804 348C804 340.458 804 336.686 806.343 334.343C808.686 332 812.458 332 820 332H942V365C942 372.542 942 376.314 939.657 378.657C937.314 381 933.542 381 926 381H820C812.458 381 808.686 381 806.343 378.657C804 376.314 804 372.542 804 365V348Z" fill="white"/>
</g>
<path d="M848.07 349.26H849.63V363H848.07V356.74H839.97V363H838.41V349.26H839.97V355.26H848.07V349.26ZM857.525 363.24C854.625 363.24 852.165 360.76 852.165 357.82C852.165 354.88 854.625 352.42 857.525 352.42C860.425 352.42 862.865 354.88 862.865 357.82C862.865 360.76 860.425 363.24 857.525 363.24ZM857.525 361.9C859.565 361.9 861.285 360.04 861.285 357.82C861.285 355.62 859.565 353.76 857.525 353.76C855.465 353.76 853.745 355.62 853.745 357.82C853.745 360.04 855.465 361.9 857.525 361.9ZM867.592 363L864.132 352.66H865.732L868.312 361L871.132 352.66H872.432L875.252 361L877.832 352.66H879.432L875.952 363H874.532L871.792 354.74L869.012 363H867.592ZM889.692 349.02H891.192V363H889.692V361.06C888.912 362.42 887.592 363.24 885.932 363.24C883.212 363.24 881.172 361 881.172 357.82C881.172 354.66 883.212 352.42 885.932 352.42C887.592 352.42 888.912 353.24 889.692 354.6V349.02ZM886.212 361.9C888.252 361.9 889.692 360.2 889.692 357.82C889.692 355.44 888.252 353.76 886.212 353.76C884.192 353.76 882.752 355.44 882.752 357.82C882.752 360.2 884.192 361.9 886.212 361.9ZM895.906 366.6C895.306 366.6 894.746 366.48 894.266 366.26L894.626 364.98C894.986 365.16 895.406 365.24 895.846 365.24C896.506 365.24 896.946 365.02 897.346 364.32L897.946 363.04L893.446 352.66H895.106L898.726 361.26L902.146 352.66H903.766L899.046 364.16C898.326 365.92 897.326 366.58 895.906 366.6ZM906.941 359.14L906.561 349.26H908.401L908.001 359.14H906.941ZM907.461 363.24C906.841 363.24 906.361 362.74 906.361 362.14C906.361 361.58 906.841 361.08 907.461 361.08C908.041 361.08 908.521 361.58 908.521 362.14C908.521 362.74 908.041 363.24 907.461 363.24Z" fill="black"/>
<mask id="mask2_585_604" style="mask-type:alpha" maskUnits="userSpaceOnUse" x="590" y="363" width="83" height="83">
<rect x="590" y="363" width="82.434" height="82.434" rx="41.217" fill="#009C93"/>
</mask>
<g mask="url(#mask2_585_604)">
<path d="M626.695 422.653L629.961 423.456C629.961 423.456 631.301 426.665 631.569 427.737C631.836 428.808 632.959 431.105 632.532 431.858C632.104 432.604 630.286 433.408 629.374 433.624C628.462 433.841 626.861 434.32 626.701 433.676C626.542 433.032 627.077 432.502 628.092 432.068C629.106 431.635 630.07 431.373 630.07 430.729C630.07 430.085 629.266 428.216 628.628 427.036C628.286 426.403 627.345 424.841 627.02 424.254C626.695 423.667 626.695 422.653 626.695 422.653Z" fill="#B0B1B0"/>
<path d="M633.757 423.291C633.757 423.291 634.185 424.203 634.025 424.466C633.865 424.733 631.99 424.785 631.888 425.748C631.779 426.711 632.423 428.797 632.532 429.276C632.64 429.755 633.005 430.518 633.495 430.45C634.299 430.342 634.299 429.436 634.242 428.472C634.207 427.88 634.509 427.458 634.937 427.241C635.364 427.025 636.487 426.654 636.544 426.118C636.596 425.583 636.328 422.853 636.328 422.853L633.757 423.291Z" fill="#B0B1B0"/>
<path d="M630.36 415.455C630.36 415.455 620.249 419.627 618.004 420.43C615.758 421.234 606.93 423.081 601.794 415.375C596.659 407.669 599.868 394.03 605.567 388.815C611.267 383.6 620.574 372.286 640.631 376.937C660.688 381.588 666.952 406.546 662.859 414.89C658.767 423.235 654.196 424.437 647.533 423.075C640.87 421.713 630.36 415.455 630.36 415.455Z" fill="url(#paint1_radial_585_604)"/>
<path d="M638.22 417.461C638.22 417.461 638.379 414.491 639.662 409.84C640.944 405.19 644.398 396.042 641.508 392.993C638.619 389.943 633.888 390.183 630.999 390.103C628.109 390.023 623.298 390.502 623.053 396.521C622.814 402.539 624.336 413.614 624.336 413.614L638.22 417.461Z" fill="#B6D115"/>
<path d="M636.498 383.23C636.937 383.361 638.214 382.107 639.109 381.035C640.511 379.348 640.967 378.493 640.995 377.422C641.046 375.495 639.775 374.173 637.587 374.013C635.392 373.854 633.574 375.136 633.734 377.063C633.893 378.989 634.338 379.428 634.857 380.551C635.182 381.269 636.133 383.121 636.498 383.23Z" fill="#06AC48"/>
<path d="M646.165 387.505C646.49 387.693 648.639 387.316 649.653 387.049C650.668 386.781 651.864 386.655 652.822 384.923C653.814 383.133 653.141 381.514 651.967 380.631C650.422 379.474 648.034 379.639 647.02 381.03C646.005 382.421 646.125 383.72 646.085 384.358C646.005 385.703 646.005 387.413 646.165 387.505Z" fill="#06AC48"/>
<path d="M638.864 390.742C639.183 391.061 642.432 389.978 643.543 388.524C644.541 387.214 645.151 385.156 643.065 383.708C640.978 382.261 638.066 383.389 638.038 386.917C638.02 388.576 638.545 390.422 638.864 390.742Z" fill="#06AC48"/>
<path d="M625.681 383.44C626.091 383.235 627.675 380.015 627.675 378.465C627.675 376.914 627.071 373.916 623.435 374.561C619.799 375.205 620.483 378.391 621.132 379.667C621.947 381.263 625.247 383.657 625.681 383.44Z" fill="#06AC48"/>
<path d="M615.838 387.829C616.168 387.63 616.106 383.07 615.142 381.731C614.179 380.391 611.933 379.428 609.956 381.195C607.978 382.962 608.405 385.259 610.811 386.706C613.216 388.154 615.57 387.989 615.838 387.829Z" fill="#06AC48"/>
<path d="M619.126 394.948C619.326 394.338 617.04 391.745 615.82 390.713C614.624 389.699 611.21 388.479 610.252 391.944C609.391 395.068 612.64 395.866 613.934 395.877C615.233 395.894 618.944 395.512 619.126 394.948Z" fill="#06AC48"/>
<path d="M608.976 395.358C609.164 395.079 607.745 390.758 606.143 389.636C604.536 388.513 602.507 389.1 601.703 391.078C601.053 392.679 601.697 395.934 604.593 395.785C606.673 395.677 608.816 395.597 608.976 395.358Z" fill="#06AC48"/>
<path d="M624.45 390.987C624.877 390.667 624.569 386.33 623.663 384.888C622.757 383.446 620.654 382.215 618.46 384.033C616.778 385.424 617.285 388.205 619.474 389.596C621.668 390.987 624.022 391.306 624.45 390.987Z" fill="#06AC48"/>
<path d="M630.975 388.952C630.975 388.952 633.973 386.706 634.104 384.541C634.19 383.15 633.597 380.984 630.975 380.927C628.941 380.887 627.339 382.477 627.607 384.455C627.869 386.438 630.28 388.952 630.975 388.952Z" fill="#06AC48"/>
<path d="M622.198 400.237C622.198 400.237 620.808 398.419 619.041 397.643C617.679 397.039 614.282 396.977 614.225 400.345C614.174 403.713 617.006 403.793 618.716 403.235C620.608 402.619 622.198 400.237 622.198 400.237Z" fill="#06AC48"/>
<path d="M619.793 405.161C619.674 404.819 617.719 404.466 615.245 404.517C614.122 404.54 611.506 405.8 612.783 408.638C613.906 411.123 616.59 410.473 617.639 409.242C618.762 407.914 619.89 405.429 619.793 405.161Z" fill="#06AC48"/>
<path d="M613.854 401.736C613.854 401.303 611.7 399.331 609.631 398.311C607.625 397.325 605.339 399.057 605.299 401.2C605.248 404.141 607.545 405.8 610.115 404.569C612.486 403.435 613.854 402.004 613.854 401.736Z" fill="#06AC48"/>
<path d="M604.872 402.272C604.872 401.895 602.142 399.171 600.164 399.063C598.186 398.954 596.898 400.773 597.006 402.539C597.08 403.719 598.477 405.988 600.671 405.509C602.797 405.042 604.872 402.807 604.872 402.272Z" fill="#06AC48"/>
<path d="M612.224 408.878C612.224 408.878 609.614 406.832 606.69 407.767C605.117 408.268 605.123 410.28 605.618 411.403C606.091 412.48 607.516 414.025 609.175 413.01C610.833 411.996 612.224 408.878 612.224 408.878Z" fill="#06AC48"/>
<path d="M605.242 411.522C605.242 411.522 601.714 409.596 600.056 410.183C598.397 410.77 598.397 412.97 598.876 414.201C599.355 415.432 600.483 416.714 602.244 416.019C604.005 415.324 605.242 411.522 605.242 411.522Z" fill="#06AC48"/>
<path d="M611.557 416.606C611.557 416.606 607.585 415.563 605.727 416.765C603.908 417.939 604.444 419.923 605.083 420.829C605.727 421.741 607.385 422.79 609.095 421.433C610.394 420.402 611.665 416.874 611.557 416.606Z" fill="#06AC48"/>
<path d="M618.699 412.69C618.699 412.69 614.607 412.291 613.433 413.414C612.258 414.537 612.236 416.549 612.977 417.507C613.889 418.681 616.453 419.057 617.684 417.615C618.91 416.167 618.699 412.69 618.699 412.69Z" fill="#06AC48"/>
<path d="M643.435 394.857C643.435 394.857 645.042 390.246 646.729 389.351C647.955 388.701 650.343 388.285 651.603 390.423C652.919 392.645 651.369 394.555 650.035 395.062C647.875 395.871 643.663 395.165 643.435 394.857Z" fill="#06AC48"/>
<path d="M647.795 399.57C647.704 399.262 651.164 396.093 653.147 395.985C655.125 395.877 656.675 397.325 656.675 399.034C656.675 400.744 655.444 402.192 653.518 402.084C651.597 401.975 647.961 400.106 647.795 399.57Z" fill="#06AC48"/>
<path d="M642.261 402.112C642.261 402.112 646.273 401.2 647.824 401.793C649.374 402.38 649.961 404.574 649.106 405.754C648.251 406.928 645.789 407.253 644.666 406.13C643.543 405.008 642.153 402.751 642.261 402.112Z" fill="#06AC48"/>
<path d="M641.138 407.566C641.372 407.373 644.934 408.741 645.846 409.385C646.758 410.029 647.505 412.115 646.006 413.238C644.507 414.36 642.825 413.106 642.312 412.166C641.913 411.425 640.819 407.834 641.138 407.566Z" fill="#06AC48"/>
<path d="M649.619 406.165C649.71 405.823 651.984 405.384 653.25 405.127C654.943 404.78 658.756 404.78 658.032 408.65C657.428 411.864 653.979 411.078 653.067 410.325C652.161 409.573 649.499 406.626 649.619 406.165Z" fill="#06AC48"/>
<path d="M655.854 403.445C655.649 403.052 658.778 400.539 659.325 400.151C660.693 399.171 663.708 398.31 664.346 401.525C664.985 404.739 662.739 405.714 661.593 405.788C660.448 405.862 656.162 404.044 655.854 403.445Z" fill="#06AC48"/>
<path d="M647.584 412.195C647.584 412.195 651.591 411.818 652.822 412.73C654.053 413.642 654.709 415.58 653.574 416.902C652.885 417.706 650.497 418.424 649.186 416.743C648.308 415.603 647.476 412.571 647.584 412.195Z" fill="#06AC48"/>
<path d="M655.717 412.098C655.717 412.098 659.434 410.975 661.411 411.727C663.389 412.48 664.01 413.602 663.418 415.626C662.825 417.649 660.266 417.849 658.978 416.954C657.399 415.854 655.398 412.616 655.717 412.098Z" fill="#06AC48"/>
<path d="M653.096 418.077C653.529 417.706 657.057 418.345 658.231 419.576C659.405 420.807 658.966 422.278 658.071 423.104C657.006 424.096 654.805 424.443 653.74 423.053C652.668 421.662 652.719 418.402 653.096 418.077Z" fill="#06AC48"/>
<path d="M642.289 416.15C642.637 415.854 644.752 417.062 645.874 417.649C646.997 418.236 650.217 421.046 647.487 423.075C645.048 424.893 643.156 421.855 642.831 420.789C642.517 419.724 642.004 416.401 642.289 416.15Z" fill="#06AC48"/>
<path d="M652.52 393.956C652.434 393.699 654.31 389.863 656.641 388.98C658.345 388.336 660.117 389.231 660.647 390.787C661.183 392.337 661.126 394.543 659.205 395.079C657.285 395.614 652.622 394.275 652.52 393.956Z" fill="#06AC48"/>
<path d="M624.9 394.913C624.9 395.369 625.196 395.369 625.943 395.421C626.718 395.472 627.362 395.421 627.362 394.942C627.362 394.269 627.146 393.899 626.131 393.899C625.116 393.899 624.9 394.486 624.9 394.913Z" fill="#E9DCA7"/>
<path d="M636.162 394.138C635.068 393.842 634.612 394.406 634.555 394.885C634.504 395.363 635.142 395.392 635.706 395.529C636.271 395.665 637.017 396.144 637.205 395.5C637.394 394.862 637.126 394.4 636.162 394.138Z" fill="#E9DCA7"/>
<path d="M632.925 399.354C632.948 399.895 633.512 399.941 634.207 399.998C634.903 400.055 635.57 400.129 635.758 399.65C635.946 399.171 635.461 398.339 634.418 398.259C633.484 398.185 632.902 398.767 632.925 399.354Z" fill="#E9DCA7"/>
<path d="M638.972 396.321C638.875 396.783 639.348 397.096 639.747 397.313C640.146 397.529 640.602 397.74 640.87 397.421C641.138 397.102 641.298 396.538 640.414 396.002C639.531 395.466 639.052 395.945 638.972 396.321Z" fill="#E9DCA7"/>
<path d="M638.385 401.029C638.197 401.559 638.704 401.855 639.029 402.152C639.348 402.448 640.043 402.631 640.368 402.311C640.693 401.992 640.499 401.16 639.941 400.812C639.371 400.465 638.567 400.493 638.385 401.029Z" fill="#E9DCA7"/>
<path d="M634.048 403.731C634.048 404.284 634.903 404.347 635.33 404.643C635.758 404.939 636.453 405.526 636.772 405.019C637.177 404.381 636.881 403.737 636.026 403.252C635.04 402.688 634.048 403.087 634.048 403.731Z" fill="#E9DCA7"/>
<path d="M632.725 407.071C632.885 406.506 633.74 406.563 634.333 406.991C634.925 407.418 635.188 408.114 634.948 408.513C634.709 408.911 633.797 408.701 633.398 408.296C632.993 407.903 632.6 407.504 632.725 407.071Z" fill="#E9DCA7"/>
<path d="M626.376 377.747C626.376 378.841 625.681 379.964 624.074 379.913C622.654 379.867 622.016 378.944 622.016 377.855C622.016 376.766 623.014 375.718 624.182 375.718C625.35 375.718 626.376 376.652 626.376 377.747Z" fill="#B6D016"/>
<path d="M639.508 377.73C639.183 378.773 638.163 379.77 636.647 379.246C635.307 378.778 634.988 377.581 635.319 376.533C635.644 375.49 636.909 374.789 638.026 375.136C639.132 375.484 639.833 376.687 639.508 377.73Z" fill="#B6D016"/>
<path d="M614.179 383.03C614.179 384.119 613.512 385.236 611.979 385.185C610.622 385.139 610.007 384.227 610.007 383.139C610.007 382.05 610.964 381.013 612.081 381.013C613.199 381.013 614.179 381.942 614.179 383.03Z" fill="#B6D016"/>
<path d="M615.148 392.679C615.011 393.665 614.253 394.594 612.822 394.349C611.563 394.133 611.101 393.226 611.238 392.24C611.375 391.254 612.395 390.434 613.438 390.576C614.481 390.719 615.285 391.693 615.148 392.679Z" fill="#B6D016"/>
<path d="M606.126 392.235C606.126 393.233 605.499 394.259 604.051 394.207C602.774 394.162 602.193 393.329 602.193 392.332C602.193 391.335 603.093 390.383 604.148 390.383C605.202 390.383 606.126 391.238 606.126 392.235Z" fill="#B6D016"/>
<path d="M601.606 402.118C601.606 403.115 600.979 404.141 599.531 404.09C598.254 404.044 597.673 403.212 597.673 402.215C597.673 401.217 598.573 400.266 599.628 400.266C600.682 400.266 601.606 401.121 601.606 402.118Z" fill="#B6D016"/>
<path d="M610.298 401.132C610.298 402.232 609.625 403.366 608.069 403.309C606.695 403.264 606.074 402.335 606.074 401.24C606.074 400.14 607.043 399.086 608.172 399.086C609.3 399.086 610.298 400.032 610.298 401.132Z" fill="#B6D016"/>
<path d="M608.935 401.2C608.935 402.049 608.377 402.847 607.328 402.808C606.405 402.773 605.806 402.141 605.858 401.12C605.92 399.946 606.73 399.513 607.488 399.513C608.251 399.513 608.935 400.351 608.935 401.2Z" fill="#0847B0"/>
<path d="M619.018 400.277C619.018 401.36 618.345 402.483 616.789 402.431C615.416 402.386 614.794 401.474 614.794 400.385C614.794 399.297 615.763 398.259 616.892 398.259C618.02 398.259 619.018 399.194 619.018 400.277Z" fill="#B6D016"/>
<path d="M617.092 407.224C617.092 408.193 616.476 409.191 615.057 409.139C613.803 409.1 613.239 408.285 613.239 407.316C613.239 406.347 614.122 405.423 615.154 405.423C616.185 405.423 617.092 406.255 617.092 407.224Z" fill="#B6D016"/>
<path d="M609.927 409.994C609.927 410.929 609.374 411.887 608.109 411.841C606.986 411.801 606.479 411.015 606.479 410.086C606.479 409.157 607.271 408.262 608.195 408.262C609.118 408.262 609.927 409.065 609.927 409.994Z" fill="#B6D016"/>
<path d="M608.331 417.587C609.066 418.157 609.517 419.205 608.673 420.157C608.052 420.858 607.02 420.938 606.285 420.368C605.55 419.798 605.328 418.624 605.892 417.894C606.462 417.165 607.59 417.017 608.331 417.587Z" fill="#B6D016"/>
<path d="M602.301 411.471C603.344 412.007 603.521 413.277 602.677 414.224C602.056 414.925 600.87 415.107 600.135 414.537C599.4 413.967 599.172 412.571 599.736 411.841C600.3 411.117 601.474 411.043 602.301 411.471Z" fill="#B6D016"/>
<path d="M616.396 416.937C615.649 417.495 614.549 417.632 613.826 416.589C613.187 415.666 613.506 414.788 614.253 414.229C615 413.671 616.185 413.768 616.744 414.509C617.297 415.244 617.143 416.378 616.396 416.937Z" fill="#B6D016"/>
<path d="M622.894 386.023C622.894 387.111 622.227 388.228 620.694 388.177C619.337 388.131 618.722 387.219 618.722 386.131C618.722 385.042 619.679 384.005 620.796 384.005C621.913 384.005 622.894 384.94 622.894 386.023Z" fill="#B6D016"/>
<path d="M632.765 383.828C632.765 384.899 632.07 385.846 630.73 385.743C629.414 385.64 628.833 384.899 628.833 383.828C628.833 382.756 629.71 381.89 630.799 381.89C631.887 381.89 632.765 382.756 632.765 383.828Z" fill="#B6D016"/>
<path d="M642.905 386.261C642.905 387.23 642.283 388.085 641.092 387.988C639.918 387.892 639.399 387.23 639.399 386.261C639.399 385.293 640.186 384.512 641.149 384.512C642.118 384.512 642.905 385.293 642.905 386.261Z" fill="#B6D016"/>
<path d="M650.257 391.882C650.32 392.919 649.727 393.877 648.468 393.848C647.231 393.82 646.638 393.141 646.575 392.104C646.513 391.067 647.288 390.178 648.302 390.115C649.317 390.052 650.195 390.844 650.257 391.882Z" fill="#B6D016"/>
<path d="M651.916 383.212C651.916 384.324 651.209 385.31 649.858 385.202C648.524 385.093 647.932 384.33 647.932 383.212C647.932 382.095 648.826 381.195 649.926 381.195C651.021 381.195 651.916 382.095 651.916 383.212Z" fill="#B6D016"/>
<path d="M659.394 392.024C659.394 392.964 658.835 394.047 657.684 393.956C656.549 393.865 655.997 392.97 655.997 392.024C655.997 391.078 656.755 390.32 657.695 390.32C658.63 390.314 659.394 391.078 659.394 392.024Z" fill="#B6D016"/>
<path d="M648.411 404.215C648.411 405.155 647.829 405.993 646.712 405.896C645.612 405.805 645.122 405.155 645.122 404.215C645.122 403.274 645.857 402.511 646.769 402.511C647.681 402.511 648.411 403.274 648.411 404.215Z" fill="#B6D016"/>
<path d="M656.179 407.84C656.179 408.78 655.598 409.618 654.481 409.521C653.381 409.43 652.891 408.78 652.891 407.84C652.891 406.899 653.626 406.136 654.538 406.136C655.45 406.136 656.179 406.899 656.179 407.84Z" fill="#B6D016"/>
<path d="M645.629 411.117C645.629 411.881 645.144 412.559 644.204 412.485C643.281 412.411 642.876 411.887 642.876 411.117C642.876 410.348 643.492 409.732 644.255 409.732C645.019 409.732 645.629 410.354 645.629 411.117Z" fill="#B6D016"/>
<path d="M652.907 415.038C652.907 415.945 652.315 416.748 651.18 416.657C650.063 416.566 649.567 415.945 649.567 415.038C649.567 414.132 650.314 413.397 651.237 413.397C652.161 413.397 652.907 414.132 652.907 415.038Z" fill="#B6D016"/>
<path d="M647.476 420.841C647.476 421.747 646.883 422.551 645.749 422.459C644.632 422.368 644.136 421.747 644.136 420.841C644.136 419.934 644.882 419.199 645.806 419.199C646.729 419.199 647.476 419.934 647.476 420.841Z" fill="#B6D016"/>
<path d="M657.695 421.109C657.695 422.101 657.045 422.984 655.803 422.887C654.577 422.791 654.03 422.107 654.03 421.109C654.03 420.117 654.851 419.308 655.86 419.308C656.874 419.308 657.695 420.112 657.695 421.109Z" fill="#B6D016"/>
<path d="M662.158 414.098C662.158 415.079 661.514 415.945 660.277 415.848C659.057 415.751 658.521 415.079 658.521 414.098C658.521 413.118 659.337 412.326 660.34 412.326C661.343 412.326 662.158 413.124 662.158 414.098Z" fill="#B6D016"/>
<path d="M655.609 399.148C655.609 400.277 654.868 401.337 653.494 401.223C652.143 401.115 651.408 400.186 651.408 399.057C651.408 397.928 652.474 397.102 653.585 397.102C654.703 397.108 655.609 398.025 655.609 399.148Z" fill="#B6D016"/>
<path d="M663.309 402.442C663.309 403.531 662.603 404.563 661.292 404.454C659.998 404.346 659.297 403.451 659.297 402.357C659.297 401.262 660.311 400.47 661.377 400.47C662.449 400.465 663.309 401.348 663.309 402.442Z" fill="#B6D016"/>
<path d="M617.61 400.807C617.479 401.668 616.858 402.414 615.826 402.255C614.914 402.112 614.39 401.4 614.567 400.368C614.766 399.177 615.627 398.835 616.379 398.926C617.132 399.012 617.759 399.809 617.61 400.807Z" fill="#0847B0"/>
<path d="M600.574 402.301C600.443 403.161 599.822 403.908 598.79 403.748C597.878 403.606 597.354 402.893 597.531 401.862C597.73 400.67 598.591 400.329 599.343 400.42C600.095 400.511 600.722 401.309 600.574 402.301Z" fill="#0847B0"/>
<path d="M614.122 392.565C613.877 393.397 613.159 394.058 612.156 393.756C611.272 393.488 610.851 392.713 611.164 391.716C611.523 390.564 612.418 390.342 613.153 390.53C613.888 390.718 614.407 391.596 614.122 392.565Z" fill="#0847B0"/>
<path d="M604.82 392.606C604.415 393.375 603.618 393.899 602.797 393.449C602.067 393.05 601.868 392.224 602.369 391.312C602.951 390.252 603.806 390.178 604.415 390.48C605.031 390.776 605.287 391.711 604.82 392.606Z" fill="#0847B0"/>
<path d="M612.424 383.543C611.751 384.102 610.822 384.284 610.229 383.555C609.705 382.905 609.836 382.073 610.645 381.412C611.586 380.654 612.401 380.904 612.857 381.417C613.313 381.93 613.199 382.894 612.424 383.543Z" fill="#0847B0"/>
<path d="M621.047 386.461C620.449 386.957 619.588 387.094 619.012 386.381C618.499 385.754 618.585 384.973 619.314 384.392C620.158 383.72 620.922 383.993 621.366 384.489C621.805 384.991 621.737 385.885 621.047 386.461Z" fill="#0847B0"/>
<path d="M624.25 378.579C623.373 378.733 622.449 378.385 622.284 377.376C622.142 376.481 622.672 375.769 623.726 375.604C624.946 375.416 625.55 376.105 625.698 376.835C625.846 377.564 625.265 378.402 624.25 378.579Z" fill="#0847B0"/>
<path d="M637.291 378.032C636.367 377.906 635.552 377.239 635.718 376.122C635.86 375.136 636.624 374.561 637.724 374.737C639.001 374.937 639.383 375.86 639.297 376.675C639.212 377.49 638.357 378.18 637.291 378.032Z" fill="#0847B0"/>
<path d="M649.699 383.765C648.815 383.269 648.24 382.323 648.804 381.343C649.305 380.476 650.269 380.249 651.317 380.858C652.531 381.565 652.577 382.58 652.201 383.303C651.819 384.033 650.719 384.335 649.699 383.765Z" fill="#0847B0"/>
<path d="M641.001 386.604C640.312 386.216 639.856 385.487 640.283 384.746C640.665 384.09 641.412 383.925 642.232 384.398C643.178 384.951 643.224 385.72 642.939 386.273C642.648 386.832 641.799 387.048 641.001 386.604Z" fill="#0847B0"/>
<path d="M647.858 392.132C647.601 391.386 647.772 390.525 648.638 390.234C649.402 389.978 650.109 390.343 650.4 391.243C650.742 392.286 650.217 392.913 649.596 393.153C648.975 393.392 648.16 392.999 647.858 392.132Z" fill="#0847B0"/>
<path d="M652.964 398.886C652.97 398.043 653.46 397.239 654.475 397.251C655.37 397.262 656.099 397.923 656.076 398.932C656.048 400.1 655.575 400.79 654.418 400.67C653.683 400.591 652.959 399.861 652.964 398.886Z" fill="#0847B0"/>
<path d="M646.701 404.039C647.082 403.486 647.795 403.184 648.485 403.668C649.094 404.096 649.265 404.894 648.826 405.532C648.296 406.307 647.578 406.336 646.894 405.897C646.376 405.572 646.256 404.683 646.701 404.039Z" fill="#0847B0"/>
<path d="M644.221 410.867C644.762 410.462 645.526 410.4 646.033 411.078C646.478 411.676 646.392 412.486 645.771 412.959C645.025 413.529 644.335 413.329 643.822 412.697C643.429 412.218 643.594 411.334 644.221 410.867Z" fill="#0847B0"/>
<path d="M651.682 414.742C652.224 414.337 652.988 414.275 653.495 414.953C653.939 415.551 653.854 416.361 653.233 416.834C652.486 417.404 651.796 417.204 651.283 416.572C650.89 416.093 651.055 415.209 651.682 414.742Z" fill="#0847B0"/>
<path d="M654.441 407.663C654.674 406.968 655.284 406.438 656.088 406.717C656.795 406.962 657.159 407.726 656.897 408.524C656.578 409.487 655.888 409.744 655.107 409.516C654.515 409.345 654.173 408.467 654.441 407.663Z" fill="#0847B0"/>
<path d="M661.497 402.505C661.508 401.776 661.93 401.08 662.773 401.103C663.52 401.12 664.101 401.736 664.096 402.579C664.09 403.594 663.509 404.05 662.694 404.067C662.078 404.084 661.485 403.354 661.497 402.505Z" fill="#0847B0"/>
<path d="M660.613 414.087C660.949 413.437 661.639 413.004 662.386 413.403C663.047 413.756 663.292 414.566 662.904 415.312C662.443 416.213 661.719 416.361 660.984 416.013C660.425 415.757 660.22 414.839 660.613 414.087Z" fill="#0847B0"/>
<path d="M646.108 420.795C646.678 420.482 647.39 420.482 647.727 421.109C648.023 421.662 647.789 422.357 647.134 422.727C646.347 423.172 645.755 422.944 645.401 422.363C645.128 421.918 645.447 421.16 646.108 420.795Z" fill="#0847B0"/>
<path d="M656.35 421.36C656.92 421.046 657.633 421.046 657.969 421.673C658.265 422.226 658.032 422.921 657.376 423.292C656.59 423.736 655.997 423.508 655.644 422.927C655.376 422.477 655.689 421.724 656.35 421.36Z" fill="#0847B0"/>
<path d="M657.102 392.087C656.88 391.277 657.159 390.36 658.185 390.08C659.091 389.835 659.861 390.251 660.112 391.232C660.402 392.366 659.741 393.016 659.006 393.244C658.265 393.477 657.359 393.027 657.102 392.087Z" fill="#0847B0"/>
<path d="M608.576 410.24C608.707 411.032 608.331 411.859 607.402 411.973C606.581 412.069 605.954 411.568 605.846 410.61C605.721 409.505 606.371 408.986 607.043 408.878C607.716 408.764 608.445 409.448 608.576 410.24Z" fill="#0847B0"/>
<path d="M615.861 407.299C615.997 408.119 615.598 408.98 614.618 409.094C613.752 409.197 613.091 408.678 612.982 407.686C612.857 406.541 613.541 405.999 614.248 405.885C614.954 405.771 615.729 406.478 615.861 407.299Z" fill="#0847B0"/>
<path d="M601.925 413.112C602.108 413.922 601.754 414.805 600.763 414.987C599.885 415.147 599.184 414.674 599.013 413.688C598.819 412.548 599.486 411.967 600.204 411.807C600.917 411.647 601.743 412.297 601.925 413.112Z" fill="#0847B0"/>
<path d="M607.585 418.874C608.029 419.473 608.08 420.305 607.385 420.778C606.769 421.194 606.046 421.04 605.55 420.299C604.974 419.444 605.276 418.749 605.766 418.384C606.257 418.02 607.14 418.276 607.585 418.874Z" fill="#0847B0"/>
<path d="M615.422 415.461C615.849 416.036 615.889 416.851 615.194 417.324C614.578 417.746 613.866 417.604 613.387 416.886C612.834 416.053 613.142 415.375 613.632 415.005C614.128 414.64 614.994 414.879 615.422 415.461Z" fill="#0847B0"/>
<path d="M620.528 390.622C620.637 391.135 622.403 390.884 623.298 391.021C624.341 391.181 626.228 391.785 626.228 391.785L629.596 393.831C629.596 393.831 632.566 393.671 632.446 393.512C632.326 393.352 631.563 388.901 631.563 388.901L628.394 387.579L625.988 388.622C625.988 388.622 624.643 388.342 623.424 388.582C622.198 388.815 620.289 389.499 620.528 390.622Z" fill="#E3EDFC"/>
<path d="M628.155 389.499C627.573 389.396 627.231 390.023 627.676 391.066C628.115 392.109 629.619 391.967 630.121 391.448C630.622 390.924 630.594 390.257 630.343 390.143C629.762 389.881 629.5 390.724 628.918 390.542C628.331 390.359 628.781 389.607 628.155 389.499Z" fill="#010100"/>
<path d="M630.662 387.812L630.702 383.8L631.642 383.737L631.705 386.797C631.705 386.797 631.705 387.208 631.756 387.231C631.853 387.271 632.104 386.929 632.104 386.929L634.11 384.535L634.8 385.122L632.936 387.322C632.936 387.322 632.668 387.607 632.708 387.681C632.76 387.789 633.324 387.658 633.689 387.601C634.464 387.481 635.233 387.379 635.233 387.379L635.313 388.251L632.304 388.57L630.662 387.812Z" fill="#010100"/>
<path d="M636.185 384.364C636.185 385.019 635.729 385.475 635.079 385.475C634.435 385.475 633.763 385.014 633.763 384.364C633.763 383.623 634.316 383.133 634.96 383.133C635.615 383.133 636.185 383.708 636.185 384.364Z" fill="#010100"/>
<path d="M632.361 382.671C632.6 383.281 632.343 383.874 631.745 384.113C631.147 384.352 630.354 384.17 630.115 383.56C629.841 382.87 630.178 382.209 630.776 381.97C631.375 381.736 632.121 382.067 632.361 382.671Z" fill="#010100"/>
<path d="M636.966 387.202C637.188 387.772 636.989 388.388 636.419 388.616C635.843 388.844 635.045 388.622 634.823 388.052C634.566 387.402 634.891 386.781 635.461 386.558C636.031 386.33 636.744 386.632 636.966 387.202Z" fill="#010100"/>
<path d="M631.654 387.595C633.227 388.41 634.532 389.459 633.706 393.101C632.879 396.737 630.389 398.236 630.417 403.075C630.446 407.914 633.894 411.043 636.407 413.454C638.921 415.859 640.631 419.234 639.724 421.399C638.995 423.143 635.416 425.013 629.106 423.913C622.797 422.819 621.138 417.883 620.813 414.617C620.488 411.351 621.041 407.846 621.976 405.349C623.327 401.753 625.629 398.778 626.729 397.057C627.448 395.94 628.753 393.341 628.753 393.341C628.753 393.341 631.318 392.964 631.107 390.451C630.896 387.937 627.43 387.818 626.655 389.721C626.068 391.169 626.627 392.03 626.627 392.03L624.86 391.42C624.86 391.42 624.883 389.054 626.234 387.909C627.881 386.518 629.995 386.74 631.654 387.595Z" fill="url(#paint2_linear_585_604)"/>
</g>
<g filter="url(#filter2_d_585_604)">
<path d="M511 432C511 424.458 511 420.686 513.343 418.343C515.686 416 519.458 416 527 416H609V449C609 456.542 609 460.314 606.657 462.657C604.314 465 600.542 465 593 465H527C519.458 465 515.686 465 513.343 462.657C511 460.314 511 456.542 511 449V432Z" fill="white"/>
</g>
<path d="M541.433 433.16H552.113V434.5H549.813V446H548.233V439.42H544.693C544.453 439.42 544.286 439.48 544.193 439.6C544.1 439.72 544.053 439.92 544.053 440.2C544.053 440.667 544.14 441.16 544.313 441.68H542.993C542.62 440.933 542.433 440.24 542.433 439.6C542.433 438.6 543.013 438.1 544.173 438.1H548.233V434.5H541.433V433.16ZM551.238 434.5V433.16H563.558V434.5H561.258V446H559.698V440.4H555.498V443.12H554.138L553.638 442C553.278 441.147 553.098 440.547 553.098 440.2C553.098 439.933 553.171 439.707 553.318 439.52C553.478 439.333 553.684 439.207 553.938 439.14V434.5H551.238ZM559.698 434.5H555.498V439.08H559.698V434.5ZM578.703 436.96V434.5H568.523V437.36C568.523 438.2 568.343 438.86 567.983 439.34H572.103C572.85 437.753 574.356 436.96 576.623 436.96H578.703ZM582.583 433.16V434.5H580.263V446H578.703V438.32H576.803C574.443 438.32 573.263 439.36 573.263 441.44C573.263 442.427 573.503 443.207 573.983 443.78C574.476 444.353 575.196 444.64 576.143 444.64C576.37 444.64 576.523 444.633 576.603 444.62V445.96C576.39 445.987 576.19 446 576.003 446C574.67 446 573.616 445.573 572.843 444.72C572.07 443.867 571.683 442.767 571.683 441.42C571.683 441.26 571.696 441.02 571.723 440.7H569.043C567.563 440.7 566.43 440.64 565.643 440.52L569.323 446H567.423L563.683 440.36V439.12H565.003C565.763 439.12 566.276 438.973 566.543 438.68C566.823 438.373 566.963 437.893 566.963 437.24V434.5H562.683V433.16H582.583ZM574.007 429.74V428.38C574.487 428.3 574.847 428.26 575.087 428.26C575.767 428.26 576.347 428.407 576.827 428.7C577.307 428.98 577.747 429.433 578.147 430.06L580.287 433.3H578.567L576.827 430.66C576.374 429.967 575.767 429.62 575.007 429.62C574.74 429.62 574.407 429.66 574.007 429.74Z" fill="black"/>
<mask id="mask3_585_604" style="mask-type:alpha" maskUnits="userSpaceOnUse" x="103" y="0" width="83" height="83">
<rect x="103" width="82.434" height="82.434" rx="41.217" fill="#009C93"/>
</mask>
<g mask="url(#mask3_585_604)">
<path d="M159.127 36.569L159.722 30.757L157.973 22.7478C157.973 22.7478 159.254 21.3258 159.976 20.9817C160.698 20.6377 161.511 20.445 161.511 20.445C161.511 20.445 163.387 20.1239 164.623 20.078C165.859 20.0368 167.267 20.2524 167.226 19.6468C167.185 19.0459 161.643 18.0964 158.613 18.0092C155.588 17.9221 145.481 18.3945 138.191 21.968C130.9 25.5414 128.983 28.7341 128.983 28.7341L126.553 33.6011L124.123 34.5919C124.123 34.5919 121.906 38.3396 121.179 40.491C120.452 42.6424 119.689 44.3213 119.303 44.7525C118.921 45.1837 117 46.6883 117 46.991C117 47.2938 118.962 48.4131 118.962 48.7112C118.962 49.014 117.386 49.3993 117.386 49.7434C117.386 50.0874 120.157 53.2296 124.336 56.4177C128.515 59.6058 133.671 61.9269 137.468 62.8765C141.261 63.8214 146.335 64.2526 146.549 64.0829C146.762 63.9086 142.583 60.5966 142.583 60.5966C142.583 60.5966 146.59 62.3168 149.106 62.6196C151.623 62.9223 152.018 62.9407 154.48 62.8444C156.942 62.748 160.916 59.2159 160.916 59.2159L163.047 52.1103L162.088 47.4727C162.088 47.4727 160.798 45.3855 160.744 44.9543C160.689 44.5231 161.275 44.8534 161.798 44.9864C162.438 45.147 163.928 46.1929 164.868 47.1837C165.445 47.7938 167.221 49.7067 167.957 50.5094C168.307 50.8947 168.934 50.748 169.088 50.2525L169.783 46.2158L169.402 33.4726L167.957 28.4588C167.794 28.0276 167.217 27.9496 166.949 28.3304C165.927 29.7845 163.701 33.2295 163.047 34.0781C162.152 35.2387 160.621 36.9956 159.754 37.3075C159.24 37.491 159.049 37.4038 159.049 37.4038L159.127 36.569Z" fill="#FFB800"/>
<path d="M153.839 62.7482C153.839 62.7482 160.399 61.4409 161.543 55.0647C162.438 50.0922 160.585 44.927 160.585 44.927C160.585 44.927 160.653 44.2206 161.416 45.1839C162.824 46.9591 165.445 52.8353 162.088 58.8078C159.249 63.8583 154.03 62.9409 153.712 62.9409C153.394 62.9409 153.839 62.7482 153.839 62.7482Z" fill="#B5D219"/>
<path d="M161.512 20.4452C161.512 20.4452 157.514 20.1562 157.355 23.8672C157.228 26.8076 158.827 28.8718 158.764 32.037C158.7 35.2022 158.355 37.4912 159.05 37.3948C159.531 37.3306 160.585 35.8123 160.617 32.5508C160.649 29.2893 158.477 25.9177 158.536 23.8305C158.605 21.6746 161.512 20.4452 161.512 20.4452Z" fill="#B5D219"/>
<path d="M167.335 28.069C166.667 28.3351 167.367 30.3947 167.589 31.0415C167.812 31.6883 168.471 35.2067 168.516 40.3719C168.548 44.0829 168.198 47.7022 168.035 48.5095C167.871 49.3169 167.521 50.5416 168.384 50.7389C169.247 50.9361 170.106 49.1242 170.592 46.0554C170.973 43.6333 170.942 41.4361 170.973 39.1471C171.042 34.3305 169.888 31.2342 169.47 30.2021C169.061 29.1654 168.23 27.7112 167.335 28.069Z" fill="#2C2F30"/>
<path d="M150.428 28.8624C149.66 28.9495 150.937 31.8073 151.282 33.8991C151.836 37.2569 151.836 39.4083 151.763 42.1744C151.695 44.7386 151.068 49.179 149.079 52.9589C148.643 53.7891 148.375 54.5093 148.983 54.5735C150.196 54.702 152.481 51.7203 153.653 48.5047C154.97 44.8854 155.22 41.6606 154.739 37.8166C154.353 34.7248 153.639 32.6835 153.162 31.6193C152.726 30.656 151.75 28.7156 150.428 28.8624Z" fill="#2C2F30"/>
<path d="M139.803 23.0003C138.622 23.3352 140.284 25.8077 141.007 27.7022C142.138 30.6609 144.482 36.0096 144.545 41.661C144.609 47.3124 142.883 51.4684 142.369 52.7574C141.838 54.1015 141.016 56.0281 140.761 56.5785C140.507 57.129 140.516 57.762 140.793 57.84C141.434 58.0143 142.51 57.2712 143.605 56.1611C144.332 55.4271 145.694 53.9638 147.262 49.4133C148.12 46.9179 148.933 42.5555 148.338 37.7344C147.629 32.0096 145.113 28.1563 144.214 26.7756C142.883 24.7297 141.179 22.6104 139.803 23.0003Z" fill="#2C2F30"/>
<path d="M132.385 28.4866C131.427 28.7526 134.143 31.5967 135.424 34.8903C136.705 38.1839 137.096 40.927 137.259 43.8032C137.418 46.6748 137.023 49.7436 136.746 51.6381C136.523 53.1748 135.71 55.9638 135.874 56.4822C136.033 57.0005 136.982 57.0189 137.686 55.8583C138.39 54.6978 139.903 52.1565 140.83 46.6656C141.261 44.1151 141.052 38.1334 138.304 33.849C135.933 30.1563 133.503 28.1747 132.385 28.4866Z" fill="#2C2F30"/>
<path d="M124.127 34.5921C124.127 34.5921 125.917 32.0095 126.685 31.0599C127.452 30.115 129.542 27.959 129.542 27.959C129.542 27.959 129.628 34.115 129.842 35.7526C130.055 37.3902 130.777 41.0049 131.59 42.8994C132.013 43.8857 132.821 46.294 132.699 47.2894C132.485 49.0554 130.518 51.7068 129.674 51.8078C127.884 52.0233 126.135 48.5875 125.326 46.3398C124.168 43.1563 123.273 37.3444 124.127 34.5921Z" fill="#2C2F30"/>
<path d="M130.627 45.5046C130.672 46.7386 129.678 47.5276 128.624 47.5276C127.57 47.5276 126.771 46.5092 126.771 45.4404C126.771 44.3716 127.665 43.5688 128.719 43.5688C129.773 43.5688 130.582 44.3395 130.627 45.5046Z" fill="#FFB805"/>
<path d="M128.774 45.4588C128.497 45.7799 127.72 45.7753 127.443 45.445C127.166 45.1148 127.203 44.445 127.602 44.1056C128.002 43.7615 128.561 43.6973 128.892 44.2065C129.124 44.5689 129.115 45.0597 128.774 45.4588Z" fill="#FFEDC7"/>
</g>
<g filter="url(#filter3_d_585_604)">
<path d="M166 51H248C255.542 51 259.314 51 261.657 53.3431C264 55.6863 264 59.4575 264 67V84C264 91.5425 264 95.3137 261.657 97.6569C259.314 100 255.542 100 248 100H182C174.458 100 170.686 100 168.343 97.6569C166 95.3137 166 91.5425 166 84V51Z" fill="white"/>
</g>
<path d="M197.503 82V68.26H203.803C206.023 68.26 207.583 69.68 207.583 71.68C207.583 73.14 206.863 73.98 205.623 74.7C207.203 75.5 208.123 76.74 208.123 78.24C208.123 80.44 206.423 82 204.043 82H197.503ZM199.063 74.08H203.403C204.923 74.08 206.003 73.16 206.003 71.88C206.003 70.6 204.923 69.68 203.403 69.68H199.063V74.08ZM199.063 80.58H203.643C205.343 80.58 206.543 79.52 206.543 78.04C206.543 76.56 205.343 75.5 203.643 75.5H199.063V80.58ZM210.776 82V68.02H212.276V82H210.776ZM222.587 71.66H224.087V82H222.587V80.34C221.987 81.44 220.647 82.24 219.187 82.24C216.907 82.24 215.307 80.58 215.307 78.24V71.66H216.807V78.04C216.807 79.72 217.867 80.9 219.387 80.9C221.127 80.9 222.587 79.68 222.587 78.24V71.66ZM232.543 71.42C235.263 71.42 237.303 73.66 237.303 76.82C237.303 80 235.263 82.24 232.543 82.24C230.883 82.24 229.563 81.42 228.783 80.06V82H227.283V68.02H228.783V73.6C229.563 72.24 230.883 71.42 232.543 71.42ZM232.263 80.9C234.283 80.9 235.723 79.2 235.723 76.82C235.723 74.44 234.283 72.76 232.263 72.76C230.223 72.76 228.783 74.44 228.783 76.82C228.783 79.2 230.223 80.9 232.263 80.9Z" fill="black"/>
<mask id="mask4_585_604" style="mask-type:alpha" maskUnits="userSpaceOnUse" x="0" y="278" width="83" height="83">
<rect y="278" width="82.434" height="82.434" rx="41.217" fill="#009C93"/>
</mask>
<g mask="url(#mask4_585_604)">
<path d="M32.7783 297.488C32.7783 297.488 36.414 295.547 38.0305 292.654C39.647 289.762 40.191 286.686 37.7114 285.409C34.7452 283.882 31.5228 287.617 31.5228 287.617C31.5228 287.617 31.8157 285.284 29.6552 285.038C24.8372 284.488 24.1048 290.117 24.1048 290.117C24.1048 290.117 22.8807 289.092 21.3532 289.626C19.5379 290.264 19.2554 292.665 19.3391 293.847C19.4595 295.542 20.4952 297.724 20.4952 297.724L32.7783 297.488Z" fill="#A42E1A"/>
<path d="M40.0181 331.857L27.4631 329.132C27.4631 329.132 27.9444 333.626 27.6096 334.138C26.9609 335.148 23.3775 335.132 21.3111 335.613C19.3703 336.063 16.7442 338.862 18.6222 341.174C20.3904 343.345 22.2684 339.369 23.2624 339.443C24.2563 339.516 24.4656 341.52 25.5798 341.467C27.2015 341.394 26.2442 339.15 27.0184 338.339C27.7926 337.528 30.7012 337.675 31.2924 336.717C31.8835 335.76 31.6586 332.558 31.6586 332.558L35.4146 333.882C35.4146 333.882 37.549 336.424 37.4025 338.522C37.256 340.62 36.1522 341.959 35.4146 342.132C32.8356 342.723 29.451 343.455 29.6707 345.004C29.8956 346.578 32.8304 345.814 37.1462 345.814C41.3417 345.814 43.5179 346.332 43.8474 344.564C44.177 342.796 41.0121 342.759 40.9755 342.132C40.9389 341.504 41.9694 338.668 41.7863 337.382C41.6032 336.089 40.0181 331.857 40.0181 331.857Z" fill="#FFB70C"/>
<path d="M34.0284 308.631L20.6468 309.907C20.6468 309.907 17.5185 312.413 16.9901 317.22C16.6815 320.035 17.7853 324.33 21.4106 327.824C24.4447 330.743 28.5303 336.022 36.6284 335.19C44.7264 334.358 50.1512 327.516 51.9455 323.822C53.6614 320.286 54.3519 316.237 54.7914 316.19C55.2308 316.143 59.3373 322.096 60.7341 321.787C61.6182 321.589 61.592 318.837 61.3723 317.22C61.027 314.715 60.0959 313.145 60.0959 313.145C60.0959 313.145 64.171 316.143 64.7622 315.28C65.2068 314.636 64.8616 311.477 64.2443 309.091C63.5694 306.475 62.5023 304.843 62.5023 304.843C62.5023 304.843 66.8233 309.138 67.1895 307.914C67.3621 307.339 67.5086 299.005 60.2423 296.792C52.9761 294.579 47.7448 301.286 46.4946 304.451C45.1501 307.856 44.062 313.36 44.062 313.36L34.0284 308.631Z" fill="url(#paint3_radial_585_604)"/>
<path d="M27.0549 294.051C23.4768 294.218 20.5734 297.634 20.5734 297.634C20.5734 297.634 17.4189 297.833 16.3988 298.173C14.9027 298.675 13.846 299.847 13.7466 300.433C13.5007 301.882 19.1453 302.494 19.1453 302.494L19.5847 310.843C19.5847 310.843 23.0687 313.888 23.4611 313.935C23.8534 313.982 26.5057 310.697 26.8509 310.645C27.1962 310.592 30.9261 314.474 30.9261 314.474L40.7086 311.309C40.7086 311.309 39.3484 308.803 38.3545 307.077C37.371 305.361 36.806 299.858 33.8242 296.729C31.8677 294.663 29.1684 293.952 27.0549 294.051Z" fill="#FFB903"/>
<path d="M21.8027 300.972C21.8027 300.972 19.4224 300.988 18.0728 300.925C17.0422 300.878 13.7517 300.434 13.7517 300.434C13.7517 300.434 13.6314 300.779 13.9505 300.925C14.2696 301.072 17.1887 301.809 18.1983 301.883C19.2027 301.956 22.2264 302.081 22.2264 302.081L22.4723 301.59L21.8027 300.972Z" fill="#FF732D"/>
<path d="M21.9965 302.468C21.9965 302.468 19.4907 302.568 19.0984 302.667C18.706 302.766 15.2952 304.655 14.0188 306.669C12.7424 308.683 12.4965 311.848 14.2647 313.051C15.7817 314.082 18.9048 313.543 20.5265 310.524C21.8919 307.982 22.9067 305.539 22.9067 305.539C22.9067 305.539 28.5513 305.44 28.7762 300.705C28.9959 295.966 24.6017 295.5 23.0061 295.872C21.7402 296.164 20.4533 297.614 20.4533 297.614C20.4533 297.614 21.6094 299.282 21.7297 300.067C21.85 300.852 21.9965 302.468 21.9965 302.468Z" fill="#FF6157"/>
<path d="M25.9098 300.747C25.643 301.887 24.7223 302.688 23.8905 302.494C23.0587 302.301 22.5931 301.035 22.8599 299.894C23.1267 298.754 23.9585 298.142 24.8007 298.299C25.8104 298.487 26.1766 299.607 25.9098 300.747Z" fill="#29292A"/>
<path d="M36.3352 308.438C36.3352 308.438 29.4508 311.529 27.939 315.95C26.4271 320.37 27.7297 325.235 31.5119 327.584C35.5976 330.126 40.9858 329.577 44.4384 328.138C47.347 326.925 48.2677 325.303 48.0846 324.163C47.8649 322.813 47.2005 322.358 47.2005 322.358C47.2005 322.358 49.3715 320.919 49.3349 319.303C49.2983 317.681 47.347 317.242 47.347 317.242C47.347 317.242 49.0786 316.175 48.9321 314.589C48.7856 313.004 46.3374 311.922 43.8891 311.644C40.9387 311.309 36.3352 308.438 36.3352 308.438Z" fill="#D27856"/>
</g>
<g filter="url(#filter4_d_585_604)">
<path d="M63 329H171C178.542 329 182.314 329 184.657 331.343C187 333.686 187 337.458 187 345V362C187 369.542 187 373.314 184.657 375.657C182.314 378 178.542 378 171 378H79C71.4575 378 67.6863 378 65.3431 375.657C63 373.314 63 369.542 63 362V329Z" fill="white"/>
</g>
<path d="M85.7726 360V346.26H92.0726C94.2926 346.26 95.8526 347.68 95.8526 349.68C95.8526 351.14 95.1326 351.98 93.8926 352.7C95.4726 353.5 96.3926 354.74 96.3926 356.24C96.3926 358.44 94.6926 360 92.3126 360H85.7726ZM87.3326 352.08H91.6726C93.1926 352.08 94.2726 351.16 94.2726 349.88C94.2726 348.6 93.1926 347.68 91.6726 347.68H87.3326V352.08ZM87.3326 358.58H91.9126C93.6126 358.58 94.8126 357.52 94.8126 356.04C94.8126 354.56 93.6126 353.5 91.9126 353.5H87.3326V358.58ZM103.845 360.24C100.945 360.24 98.4854 357.76 98.4854 354.82C98.4854 351.88 100.945 349.42 103.845 349.42C106.745 349.42 109.185 351.88 109.185 354.82C109.185 357.76 106.745 360.24 103.845 360.24ZM103.845 358.9C105.885 358.9 107.605 357.04 107.605 354.82C107.605 352.62 105.885 350.76 103.845 350.76C101.785 350.76 100.065 352.62 100.065 354.82C100.065 357.04 101.785 358.9 103.845 358.9ZM116.583 349.42C118.863 349.42 120.463 351.08 120.463 353.42V360H118.963V353.62C118.963 351.94 117.903 350.76 116.383 350.76C114.643 350.76 113.183 351.98 113.183 353.42V360H111.683V349.66H113.183V351.32C113.783 350.22 115.123 349.42 116.583 349.42ZM124.239 347.78C123.679 347.78 123.239 347.32 123.239 346.78C123.239 346.26 123.679 345.8 124.239 345.8C124.779 345.8 125.219 346.26 125.219 346.78C125.219 347.32 124.779 347.78 124.239 347.78ZM122.459 363.56C121.899 363.56 121.239 363.42 120.839 363.24L121.079 362C121.399 362.12 121.939 362.22 122.359 362.22C123.019 362.22 123.479 361.68 123.479 360.92V349.66H124.979V360.92C124.979 362.46 123.939 363.56 122.459 363.56ZM132.791 360.24C129.891 360.24 127.431 357.76 127.431 354.82C127.431 351.88 129.891 349.42 132.791 349.42C135.691 349.42 138.131 351.88 138.131 354.82C138.131 357.76 135.691 360.24 132.791 360.24ZM132.791 358.9C134.831 358.9 136.551 357.04 136.551 354.82C136.551 352.62 134.831 350.76 132.791 350.76C130.731 350.76 129.011 352.62 129.011 354.82C129.011 357.04 130.731 358.9 132.791 358.9ZM147.888 349.66H149.388V360H147.888V358.34C147.288 359.44 145.948 360.24 144.488 360.24C142.208 360.24 140.608 358.58 140.608 356.24V349.66H142.108V356.04C142.108 357.72 143.168 358.9 144.688 358.9C146.428 358.9 147.888 357.68 147.888 356.24V349.66ZM154.084 351.68C154.704 350.3 156.184 349.42 158.084 349.42V350.76C155.744 350.76 154.084 352.2 154.084 354.22V360H152.584V349.66H154.084V351.68ZM160.879 356.14L160.499 346.26H162.339L161.939 356.14H160.879ZM161.399 360.24C160.779 360.24 160.299 359.74 160.299 359.14C160.299 358.58 160.779 358.08 161.399 358.08C161.979 358.08 162.459 358.58 162.459 359.14C162.459 359.74 161.979 360.24 161.399 360.24Z" fill="black"/>
<defs>
<filter id="filter0_d_585_604" x="668" y="97" width="146" height="57" filterUnits="userSpaceOnUse" color-interpolation-filters="sRGB">
<feFlood flood-opacity="0" result="BackgroundImageFix"/>
<feColorMatrix in="SourceAlpha" type="matrix" values="0 0 0 0 0 0 0 0 0 0 0 0 0 0 0 0 0 0 127 0" result="hardAlpha"/>
<feOffset dy="1"/>
<feGaussianBlur stdDeviation="2"/>
<feComposite in2="hardAlpha" operator="out"/>
<feColorMatrix type="matrix" values="0 0 0 0 0 0 0 0 0 0 0 0 0 0 0 0 0 0 0.25 0"/>
<feBlend mode="normal" in2="BackgroundImageFix" result="effect1_dropShadow_585_604"/>
<feBlend mode="normal" in="SourceGraphic" in2="effect1_dropShadow_585_604" result="shape"/>
</filter>
<filter id="filter1_d_585_604" x="800" y="329" width="146" height="57" filterUnits="userSpaceOnUse" color-interpolation-filters="sRGB">
<feFlood flood-opacity="0" result="BackgroundImageFix"/>
<feColorMatrix in="SourceAlpha" type="matrix" values="0 0 0 0 0 0 0 0 0 0 0 0 0 0 0 0 0 0 127 0" result="hardAlpha"/>
<feOffset dy="1"/>
<feGaussianBlur stdDeviation="2"/>
<feComposite in2="hardAlpha" operator="out"/>
<feColorMatrix type="matrix" values="0 0 0 0 0 0 0 0 0 0 0 0 0 0 0 0 0 0 0.25 0"/>
<feBlend mode="normal" in2="BackgroundImageFix" result="effect1_dropShadow_585_604"/>
<feBlend mode="normal" in="SourceGraphic" in2="effect1_dropShadow_585_604" result="shape"/>
</filter>
<filter id="filter2_d_585_604" x="507" y="413" width="106" height="57" filterUnits="userSpaceOnUse" color-interpolation-filters="sRGB">
<feFlood flood-opacity="0" result="BackgroundImageFix"/>
<feColorMatrix in="SourceAlpha" type="matrix" values="0 0 0 0 0 0 0 0 0 0 0 0 0 0 0 0 0 0 127 0" result="hardAlpha"/>
<feOffset dy="1"/>
<feGaussianBlur stdDeviation="2"/>
<feComposite in2="hardAlpha" operator="out"/>
<feColorMatrix type="matrix" values="0 0 0 0 0 0 0 0 0 0 0 0 0 0 0 0 0 0 0.25 0"/>
<feBlend mode="normal" in2="BackgroundImageFix" result="effect1_dropShadow_585_604"/>
<feBlend mode="normal" in="SourceGraphic" in2="effect1_dropShadow_585_604" result="shape"/>
</filter>
<filter id="filter3_d_585_604" x="162" y="48" width="106" height="57" filterUnits="userSpaceOnUse" color-interpolation-filters="sRGB">
<feFlood flood-opacity="0" result="BackgroundImageFix"/>
<feColorMatrix in="SourceAlpha" type="matrix" values="0 0 0 0 0 0 0 0 0 0 0 0 0 0 0 0 0 0 127 0" result="hardAlpha"/>
<feOffset dy="1"/>
<feGaussianBlur stdDeviation="2"/>
<feComposite in2="hardAlpha" operator="out"/>
<feColorMatrix type="matrix" values="0 0 0 0 0 0 0 0 0 0 0 0 0 0 0 0 0 0 0.25 0"/>
<feBlend mode="normal" in2="BackgroundImageFix" result="effect1_dropShadow_585_604"/>
<feBlend mode="normal" in="SourceGraphic" in2="effect1_dropShadow_585_604" result="shape"/>
</filter>
<filter id="filter4_d_585_604" x="59" y="326" width="132" height="57" filterUnits="userSpaceOnUse" color-interpolation-filters="sRGB">
<feFlood flood-opacity="0" result="BackgroundImageFix"/>
<feColorMatrix in="SourceAlpha" type="matrix" values="0 0 0 0 0 0 0 0 0 0 0 0 0 0 0 0 0 0 127 0" result="hardAlpha"/>
<feOffset dy="1"/>
<feGaussianBlur stdDeviation="2"/>
<feComposite in2="hardAlpha" operator="out"/>
<feColorMatrix type="matrix" values="0 0 0 0 0 0 0 0 0 0 0 0 0 0 0 0 0 0 0.25 0"/>
<feBlend mode="normal" in2="BackgroundImageFix" result="effect1_dropShadow_585_604"/>
<feBlend mode="normal" in="SourceGraphic" in2="effect1_dropShadow_585_604" result="shape"/>
</filter>
<linearGradient id="paint0_linear_585_604" x1="972.865" y1="340.3" x2="976.994" y2="352.855" gradientUnits="userSpaceOnUse">
<stop offset="0.207" stop-color="#AC8979"/>
<stop offset="0.309" stop-color="#B59482"/>
<stop offset="0.485" stop-color="#CDB099"/>
<stop offset="0.714" stop-color="#F4DDBE"/>
<stop offset="0.771" stop-color="#FFEAC8"/>
</linearGradient>
<radialGradient id="paint1_radial_585_604" cx="0" cy="0" r="1" gradientUnits="userSpaceOnUse" gradientTransform="translate(630.398 411.659) scale(41.4231 41.4231)">
<stop offset="0.221" stop-color="#7CD086"/>
<stop offset="0.348" stop-color="#78CF84"/>
<stop offset="0.472" stop-color="#6CCB7D"/>
<stop offset="0.594" stop-color="#59C572"/>
<stop offset="0.715" stop-color="#3EBC62"/>
<stop offset="0.834" stop-color="#1BB14E"/>
<stop offset="0.908" stop-color="#01A93F"/>
</radialGradient>
<linearGradient id="paint2_linear_585_604" x1="630.161" y1="388.919" x2="630.386" y2="423.115" gradientUnits="userSpaceOnUse">
<stop offset="0.525" stop-color="#004DAF"/>
<stop offset="0.703" stop-color="#0054AF"/>
<stop offset="0.962" stop-color="#0267B1"/>
<stop offset="1" stop-color="#026BB1"/>
</linearGradient>
<radialGradient id="paint3_radial_585_604" cx="0" cy="0" r="1" gradientUnits="userSpaceOnUse" gradientTransform="translate(15.6577 334.507) scale(50.1889 50.1889)">
<stop offset="0.468" stop-color="#8D5E50"/>
<stop offset="0.675" stop-color="#5A7439"/>
<stop offset="0.821" stop-color="#34642E"/>
<stop offset="1" stop-color="#315427"/>
</radialGradient>
</defs>
</svg>
