<svg width="404" height="451" viewBox="0 0 404 451" fill="none" xmlns="http://www.w3.org/2000/svg">
<g clip-path="url(#clip0_727_924)">
<path d="M384.994 425.095C382.476 425.98 379.772 426.202 377.143 425.739C374.514 425.276 372.049 424.143 369.985 422.45C364.728 418.037 363.077 410.767 361.738 404.035L357.771 384.122L366.076 389.842C372.049 393.954 378.155 398.199 382.291 404.157C386.426 410.115 388.231 418.247 384.909 424.693" fill="#E6E6E6"/>
<path d="M384.284 449.203C385.125 443.079 385.989 436.877 385.4 430.688C384.876 425.191 383.2 419.823 379.786 415.42C377.974 413.088 375.769 411.09 373.27 409.516C372.618 409.105 372.019 410.137 372.668 410.546C376.991 413.279 380.335 417.314 382.217 422.07C384.296 427.358 384.63 433.124 384.269 438.741C384.052 442.139 383.593 445.513 383.13 448.885C383.093 449.037 383.115 449.199 383.193 449.335C383.27 449.472 383.397 449.573 383.547 449.62C383.7 449.661 383.863 449.64 384 449.562C384.138 449.484 384.239 449.355 384.282 449.202L384.284 449.203Z" fill="#F2F2F2"/>
<path d="M354.185 347.493H6.7373V0H354.185V347.493Z" fill="white"/>
<path d="M354.185 347.493H6.7373V0H354.185V347.493ZM11.8708 342.358H349.052V5.13418H11.8708V342.358Z" fill="#E5E5E5"/>
<path d="M292.634 54.3652H142.174V59.0527H292.634V54.3652Z" fill="#E5E5E5"/>
<path d="M292.634 66.5527H142.174V71.2402H292.634V66.5527Z" fill="#E5E5E5"/>
<path d="M292.634 78.7402H142.174V83.4277H292.634V78.7402Z" fill="#E5E5E5"/>
<path d="M292.634 159.017H142.174V163.704H292.634V159.017Z" fill="#E5E5E5"/>
<path d="M292.634 171.204H142.174V175.892H292.634V171.204Z" fill="#E5E5E5"/>
<path d="M292.634 183.392H142.174V188.079H292.634V183.392Z" fill="#E5E5E5"/>
<path d="M292.634 263.668H142.174V268.355H292.634V263.668Z" fill="#E5E5E5"/>
<path d="M292.634 275.855H142.174V280.543H292.634V275.855Z" fill="#E5E5E5"/>
<path d="M292.634 288.043H142.174V292.73H292.634V288.043Z" fill="#E5E5E5"/>
<path d="M81.9417 91.7128C79.3714 90.3581 76.6884 89.2288 73.923 88.3378L73.5704 84.4365L59.2694 82.8955L57.4518 87.882L52.3195 89.8082C52.1359 89.8779 51.961 89.9689 51.7987 90.0795H51.7932C51.5067 90.2731 51.2628 90.5231 51.0762 90.8142C50.8897 91.1052 50.7644 91.4313 50.7081 91.7724C50.6533 92.1116 50.6663 92.4583 50.7462 92.7925L51.0175 93.9048C51.408 94.1381 51.8096 94.3606 52.2109 94.5722L52.466 94.7025C53.052 95.0063 53.6488 95.2939 54.2618 95.5597C54.3866 95.614 54.5222 95.6683 54.647 95.7225C54.6579 95.728 54.6632 95.728 54.674 95.7334C54.9617 95.8528 55.2491 95.9667 55.5421 96.0752C56.5045 96.4428 57.4861 96.758 58.4826 97.0194C61.0259 97.6973 63.6468 98.0402 66.2788 98.0395C67.2391 98.0395 68.1885 97.996 69.1271 97.9038C71.2717 97.7058 73.3888 97.2783 75.4422 96.6287C75.4475 96.6287 75.4531 96.6233 75.4584 96.6233C76.7555 96.21 78.0227 95.7078 79.2508 95.1203C79.2561 95.1148 79.267 95.1148 79.2725 95.1094C79.5491 94.9792 79.815 94.8381 80.0863 94.7025L80.2164 94.6373C80.4333 94.5234 80.6506 94.4094 80.8675 94.2901C81.41 93.9916 81.9417 93.6769 82.4678 93.3405C82.6143 93.2537 82.7555 93.1615 82.902 93.0638C83.1081 92.9281 83.3142 92.7871 83.515 92.6405C83.0104 92.315 82.4843 92.0057 81.9417 91.7128Z" fill="#3F3D56"/>
<path d="M55.1027 94.1166L54.2076 90.0742H51.8692C51.8457 90.0745 51.8221 90.0764 51.7988 90.0796H51.7932C50.9529 90.1508 50.1436 90.4305 49.4387 90.8935C48.9606 91.1988 48.5355 91.58 48.1802 92.0221C48.8745 92.5484 49.5961 93.0368 50.3394 93.5034L50.372 93.5197C50.5834 93.6499 50.8006 93.7801 51.0176 93.9049C51.4081 94.1383 51.8097 94.3607 52.211 94.5723L52.4661 94.7026C53.0521 95.0064 53.6489 95.294 54.2619 95.5599C54.3867 95.6141 54.5223 95.6684 54.6471 95.7227C54.658 95.7281 54.6633 95.7281 54.6741 95.7335C54.9618 95.8529 55.2492 95.9668 55.5422 96.0754L55.1027 94.1166Z" fill="#3F3D56"/>
<path d="M65.8583 80.4292C71.5467 80.4292 76.158 75.8173 76.158 70.1282C76.158 64.4391 71.5467 59.8271 65.8583 59.8271C60.1699 59.8271 55.5586 64.4391 55.5586 70.1282C55.5586 75.8173 60.1699 80.4292 65.8583 80.4292Z" fill="#FFB8B8"/>
<path d="M58.9432 65.1108C60.0094 66.3727 61.8138 66.7288 63.4783 66.8748C67.3698 67.0898 71.2724 66.7711 75.0775 65.9275C75.3132 68.213 74.6704 70.6774 76.0164 72.5574C76.6474 70.2813 77.0143 67.9401 77.1098 65.5801C77.2103 64.5675 77.0781 63.5454 76.7234 62.5917C76.5337 62.1138 76.2137 61.6987 75.7999 61.3935C75.3861 61.0884 74.8949 60.9055 74.3824 60.8656C75.1497 60.2834 76.0485 59.8991 76.9995 59.7466L73.7291 58.1029L74.569 57.2406L68.6481 56.8782L70.363 55.7886C67.7819 55.4339 65.1708 55.3514 62.5725 55.5426C61.3583 55.5432 60.1672 55.8743 59.1269 56.5005C58.1493 57.1997 57.5844 58.5893 58.1913 59.6158C57.4315 59.7406 56.7161 60.0573 56.1129 60.536C55.5097 61.0146 55.0388 61.6393 54.7445 62.351C54.3725 63.4821 54.2827 64.6871 54.4829 65.861C54.706 67.7443 55.1436 69.5959 55.7873 71.3798L58.9432 65.1108Z" fill="#2F2E41"/>
<path d="M94.8212 58.9615C93.3761 54.8094 91.0428 51.0226 87.984 47.8651C84.9252 44.7076 81.2146 42.2554 77.1108 40.6795C73.0071 39.1037 68.609 38.442 64.2233 38.7408C59.8376 39.0395 55.5699 40.2915 51.7177 42.4093C47.8655 44.5272 44.5216 47.4599 41.9191 51.0031C39.3167 54.5462 37.5183 58.6145 36.6495 62.9242C35.7806 67.2338 35.8622 71.6812 36.8885 75.9561C37.9148 80.231 39.8612 84.2306 42.5918 87.6759C42.8631 88.0177 43.1452 88.3596 43.4329 88.6905C43.4546 88.7122 43.4708 88.734 43.4925 88.7556C44.1997 89.5706 44.9513 90.3459 45.7439 91.078C45.9503 91.2679 46.1673 91.4632 46.3842 91.6477C46.7964 92.0167 47.2197 92.3693 47.6592 92.7058C47.8327 92.8414 48.0009 92.9771 48.18 93.1073C48.8743 93.6336 49.596 94.122 50.3393 94.5886L50.3719 94.6049C50.5833 94.7351 50.8005 94.8654 51.0175 94.9901C51.408 95.2235 51.8095 95.4459 52.2109 95.6575L52.466 95.7878C53.0519 96.0916 53.6488 96.3792 54.2618 96.6451C54.3866 96.6993 54.5222 96.7536 54.647 96.8079C54.6578 96.8133 54.6631 96.8133 54.674 96.8187C54.9617 96.9381 55.2491 97.052 55.5421 97.1606C56.5045 97.5282 57.4861 97.8433 58.4825 98.1047C61.0258 98.7826 63.6467 99.1255 66.2788 99.1248C67.2391 99.1248 68.1885 99.0813 69.1271 98.9891C71.2716 98.7911 73.3888 98.3636 75.4422 97.714C75.4475 97.714 75.453 97.7086 75.4583 97.7086C76.7555 97.2953 78.0226 96.7931 79.2508 96.2056C79.2561 96.2001 79.2669 96.2001 79.2725 96.1947C79.549 96.0645 79.815 95.9234 80.0863 95.7878L80.2164 95.7226C80.4333 95.6087 80.6505 95.4947 80.8675 95.3754C81.41 95.0769 81.9417 94.7622 82.4678 94.4258C82.6143 94.339 82.7555 94.2468 82.902 94.1491C83.1081 94.0135 83.3142 93.8724 83.515 93.7259C83.7807 93.5414 84.0466 93.3515 84.307 93.1561C84.3884 93.0965 84.4753 93.0368 84.5566 92.9717C89.6394 89.1132 93.3702 83.7443 95.2141 77.6346C97.0581 71.5249 96.9205 64.9882 94.8212 58.9615ZM83.5584 91.6531C83.3794 91.7942 83.195 91.9299 83.0103 92.0547C82.8312 92.1903 82.6524 92.3205 82.4678 92.4399C82.3105 92.5539 82.1531 92.6624 81.9904 92.7655L81.9417 92.798C81.8222 92.8794 81.703 92.9553 81.5835 93.0313C81.1332 93.3135 80.6775 93.5848 80.2164 93.8452L80.0699 93.9266C79.8638 94.0406 79.6577 94.1491 79.4516 94.2577C79.4243 94.2739 79.3917 94.2848 79.3647 94.301L79.3321 94.3173C79.0717 94.453 78.8057 94.5832 78.54 94.708C77.5142 95.2021 76.4577 95.6298 75.3771 95.9885C75.2359 96.0374 75.0949 96.0862 74.954 96.1296C73.0104 96.7479 71.006 97.1553 68.9753 97.345C68.0855 97.4264 67.1848 97.4698 66.2788 97.4698C63.7893 97.475 61.3101 97.1502 58.9059 96.504C57.672 96.1819 56.4627 95.7721 55.2873 95.2777C55.2274 95.2506 55.1622 95.2289 55.1026 95.2018C55.0377 95.1747 54.9778 95.1529 54.9182 95.1258C54.8531 95.0987 54.7934 95.0716 54.7283 95.039C54.2183 94.8165 53.7137 94.5723 53.2202 94.3173L52.9815 94.1926C52.3791 93.8778 51.7878 93.5414 51.2127 93.1833C51.0445 93.0802 50.871 92.9717 50.7081 92.8577C50.6649 92.8306 50.6267 92.8035 50.5833 92.7763C50.1981 92.5213 49.8129 92.2554 49.4386 91.9787C49.1838 91.7888 48.9287 91.5989 48.6791 91.4036C48.2614 91.0888 47.8598 90.7524 47.4693 90.4052C47.2632 90.2315 47.0624 90.0416 46.8672 89.8625C46.0979 89.1522 45.3697 88.3986 44.6862 87.6054C44.4584 87.3449 44.2358 87.0845 44.0242 86.8132C43.9761 86.7595 43.9308 86.7034 43.8885 86.645C40.3635 82.1963 38.2433 76.7983 37.7982 71.1396C37.3531 65.4809 38.6033 59.8177 41.3894 54.8725C44.1755 49.9273 48.3712 45.924 53.4413 43.3733C58.5115 40.8226 64.2265 39.84 69.8573 40.5509C75.4881 41.2618 80.7796 43.6339 85.057 47.3647C89.3343 51.0955 92.4037 56.016 93.8737 61.4985C95.3436 66.981 95.1475 72.7772 93.3103 78.1478C91.4731 83.5185 88.0782 88.2201 83.5584 91.6531Z" fill="#3F3D56"/>
<path d="M94.8212 163.613C93.3761 159.461 91.0427 155.674 87.984 152.516C84.9252 149.359 81.2145 146.907 77.1108 145.331C73.007 143.755 68.609 143.093 64.2233 143.392C59.8376 143.691 55.5699 144.943 51.7177 147.061C47.8655 149.179 44.5216 152.111 41.9191 155.654C39.3167 159.198 37.5183 163.266 36.6495 167.575C35.7806 171.885 35.8622 176.333 36.8885 180.607C37.9148 184.882 39.8611 188.882 42.5918 192.327C42.8631 192.669 43.1452 193.011 43.4326 193.342C43.4543 193.364 43.4705 193.385 43.4922 193.407C44.1996 194.222 44.9513 194.997 45.7439 195.729C45.95 195.919 46.167 196.115 46.3839 196.299C46.7964 196.668 47.2194 197.021 47.6589 197.357C48.517 198.034 49.4117 198.662 50.339 199.24L50.3716 199.256C50.9737 199.631 51.5867 199.978 52.2108 200.309L52.4657 200.439C53.0517 200.743 53.6485 201.031 54.2615 201.296C54.3863 201.351 54.5219 201.405 54.6467 201.459C54.6575 201.465 54.6631 201.465 54.6739 201.47C55.9126 201.985 57.1851 202.415 58.4825 202.756C61.0257 203.434 63.6465 203.777 66.2785 203.776C67.2388 203.776 68.1882 203.733 69.1268 203.64C71.2713 203.442 73.3885 203.015 75.4419 202.365C75.4474 202.365 75.4527 202.36 75.458 202.36C76.7552 201.947 78.0224 201.444 79.2505 200.857C79.2558 200.851 79.2669 200.851 79.2722 200.846C79.5488 200.716 79.8147 200.575 80.086 200.439L80.2163 200.374C80.4333 200.26 80.6502 200.146 80.8672 200.027C81.4097 199.728 81.9414 199.414 82.4678 199.077C82.6142 198.99 82.7552 198.898 82.9017 198.8C83.379 198.486 83.8511 198.149 84.3067 197.807C84.3883 197.748 84.475 197.688 84.5565 197.623C89.6392 193.764 93.3698 188.395 95.2138 182.286C97.0577 176.176 96.9203 169.64 94.8212 163.613Z" fill="white"/>
<path d="M76.2522 186.009C78.7539 186.009 80.7818 183.98 80.7818 181.478C80.7818 178.976 78.7539 176.948 76.2522 176.948C73.7506 176.948 71.7227 178.976 71.7227 181.478C71.7227 183.98 73.7506 186.009 76.2522 186.009Z" fill="#2F2E41"/>
<path d="M77.5143 177.073C78.2982 177.073 79.0688 177.277 79.7506 177.664C80.4323 178.051 81.002 178.608 81.4039 179.282C81.8057 179.955 82.026 180.721 82.0432 181.505C82.0603 182.289 81.8738 183.063 81.5018 183.754C81.8944 183.262 82.1804 182.694 82.3414 182.086C82.5025 181.478 82.5352 180.843 82.4373 180.222C82.3395 179.601 82.1134 179.007 81.7733 178.477C81.4332 177.948 80.9866 177.496 80.4621 177.149C79.9375 176.802 79.3464 176.568 78.7265 176.462C78.1065 176.356 77.4713 176.381 76.8613 176.534C76.2513 176.687 75.6799 176.965 75.1835 177.352C74.6871 177.738 74.2765 178.223 73.978 178.777C74.4015 178.245 74.9394 177.816 75.5518 177.521C76.1641 177.226 76.8346 177.073 77.5143 177.073Z" fill="#2F2E41"/>
<path d="M67.788 181.468C75.1368 181.468 81.0941 175.51 81.0941 168.16C81.0941 160.811 75.1368 154.853 67.788 154.853C60.4393 154.853 54.4819 160.811 54.4819 168.16C54.4819 175.51 60.4393 181.468 67.788 181.468Z" fill="#2F2E41"/>
<path d="M57.3449 159.904C59.6376 157.325 62.8425 155.738 66.2831 155.478C69.7236 155.218 73.1308 156.304 75.7855 158.509C75.677 158.405 75.5684 158.301 75.4562 158.2C72.8277 155.845 69.3714 154.631 65.8477 154.825C62.324 155.018 59.0216 156.604 56.6668 159.233C54.3121 161.862 53.098 165.318 53.2915 168.842C53.4851 172.367 55.0705 175.67 57.699 178.025C57.7243 178.047 57.7497 178.07 57.7751 178.092C57.8879 178.193 58.004 178.287 58.1196 178.384C55.6197 176.005 54.1416 172.748 53.9972 169.3C53.8527 165.853 55.0527 162.484 57.3449 159.904Z" fill="#2F2E41"/>
<path d="M67.6753 181.356C72.4082 181.356 76.2451 177.518 76.2451 172.785C76.2451 168.051 72.4082 164.214 67.6753 164.214C62.9423 164.214 59.1055 168.051 59.1055 172.785C59.1055 177.518 62.9423 181.356 67.6753 181.356Z" fill="#A0616A"/>
<path d="M83.0102 195.116V197.992C82.4838 198.328 81.9522 198.643 81.4096 198.941C81.1927 199.061 80.9757 199.175 80.7588 199.289L80.6284 199.354C80.3572 199.489 80.0912 199.631 79.8146 199.761C79.8093 199.766 79.7982 199.766 79.7929 199.772C78.5648 200.359 77.2977 200.861 76.0005 201.275C75.9952 201.275 75.9899 201.28 75.9843 201.28C73.9309 201.93 71.8138 202.357 69.6692 202.555C68.7307 202.647 67.7812 202.691 66.8209 202.691C64.189 202.692 61.5682 202.349 59.025 201.671C57.7276 201.33 56.4551 200.9 55.2164 200.385C55.2056 200.379 55.2 200.379 55.1891 200.374C55.0643 200.32 54.9287 200.265 54.8039 200.211C54.191 199.945 53.5941 199.658 53.0081 199.354L52.7533 199.224C52.1292 198.893 51.5162 198.545 50.9141 198.171L50.8815 198.155C49.9542 197.577 49.0595 196.948 48.2014 196.272C47.7619 195.935 47.3389 195.583 46.9264 195.214C46.7095 195.029 46.4925 194.834 46.2864 194.644C45.4937 193.912 44.742 193.137 44.0347 192.322C44.1285 191.757 44.2664 191.2 44.4471 190.656L44.4524 190.651C44.4849 190.558 44.5229 190.467 44.5663 190.379C44.5963 190.301 44.6307 190.225 44.6694 190.151C45.6405 188.334 47.3985 187.883 49.5795 187.786C50.811 187.731 52.1726 187.791 53.6105 187.775C54.37 187.769 55.1565 187.742 55.9433 187.672C60.9074 187.221 60.007 184.291 60.2293 182.712C60.4518 181.182 61.8299 182.506 61.922 182.593L61.9273 182.598C64.7365 183.913 67.8445 184.458 70.9334 184.177C71.4651 184.112 71.9967 184.074 72.5284 184.058C73.9282 184.042 73.6243 184.443 73.1416 184.774C72.9073 184.928 72.6626 185.066 72.4092 185.187C72.4092 185.187 72.1867 186.543 71.9589 188.572C71.7419 190.515 75.4636 191.426 75.7727 191.497C75.7791 191.501 75.7868 191.503 75.7944 191.502C77.1536 191.15 78.5845 191.187 79.9233 191.611H79.9286C80.6935 191.892 81.3761 192.36 81.9142 192.972C82.4524 193.584 82.8291 194.321 83.0102 195.116Z" fill="#0094FF"/>
<path d="M55.2708 198.605C55.2708 199.007 55.2602 199.392 55.2438 199.756C55.2385 199.973 55.2276 200.184 55.2168 200.385C55.2059 200.38 55.2003 200.38 55.1895 200.374C55.0647 200.32 54.9291 200.266 54.8043 200.212C54.1913 199.946 53.5945 199.658 53.0085 199.354L52.7537 199.224C52.1295 198.893 51.5165 198.546 50.9144 198.171C50.9306 197.981 50.9578 197.792 50.9848 197.602C51.0444 197.184 51.0935 196.761 51.126 196.343C51.3393 193.408 50.8074 190.466 49.5798 187.791V187.786C49.4712 187.569 49.4062 187.45 49.4062 187.45C49.4062 187.45 50.9848 186.093 53.2363 187.45C53.3801 187.534 53.5071 187.644 53.6109 187.775C54.9672 189.376 55.336 194.758 55.2708 198.605Z" fill="#2F2E41"/>
<path d="M79.9072 197.868C79.8855 198.475 79.8529 199.11 79.8151 199.756V199.761C79.8098 199.767 79.7986 199.767 79.7933 199.772C78.5652 200.36 77.2981 200.862 76.0009 201.275C75.9956 201.275 75.9903 201.281 75.9848 201.281L75.9251 199.756L75.9196 199.555L75.6322 192.132C75.6245 191.964 75.6509 191.796 75.7099 191.639C75.7688 191.481 75.8591 191.337 75.9752 191.216C76.0913 191.094 76.2308 190.997 76.3854 190.931C76.54 190.865 76.7064 190.83 76.8746 190.83H79.6251C79.7607 190.83 79.8585 191.107 79.9237 191.606V191.611C80.0571 193.695 80.0516 195.785 79.9072 197.868Z" fill="#2F2E41"/>
<path d="M60.3457 162.071V170.644H62.3303L64.8558 167.938L64.5178 170.644H73.2905L72.748 167.938L73.833 170.644H75.2317V162.071H60.3457Z" fill="#2F2E41"/>
<path d="M58.9925 172.221C59.3661 172.221 59.669 171.666 59.669 170.981C59.669 170.296 59.3661 169.74 58.9925 169.74C58.6188 169.74 58.3159 170.296 58.3159 170.981C58.3159 171.666 58.6188 172.221 58.9925 172.221Z" fill="#A0616A"/>
<path d="M76.3582 172.221C76.7318 172.221 77.0347 171.666 77.0347 170.981C77.0347 170.296 76.7318 169.74 76.3582 169.74C75.9845 169.74 75.6816 170.296 75.6816 170.981C75.6816 171.666 75.9845 172.221 76.3582 172.221Z" fill="#A0616A"/>
<path d="M84.8492 196.723C84.3936 197.064 83.9215 197.401 83.4442 197.715C83.2977 197.813 83.1567 197.905 83.0102 197.992C82.4839 198.329 81.9522 198.643 81.4097 198.942C81.1927 199.061 80.9758 199.175 80.7588 199.289V193.31C80.7588 193.31 81.6266 194.004 83.0102 195.16C83.1837 195.306 83.3628 195.458 83.5527 195.621C83.9541 195.957 84.3883 196.326 84.8492 196.723Z" fill="#0094FF"/>
<path d="M94.8212 163.613C93.3761 159.461 91.0427 155.674 87.984 152.516C84.9252 149.359 81.2145 146.907 77.1108 145.331C73.007 143.755 68.609 143.093 64.2233 143.392C59.8376 143.691 55.5699 144.943 51.7177 147.061C47.8655 149.179 44.5216 152.111 41.9191 155.654C39.3167 159.198 37.5183 163.266 36.6495 167.575C35.7806 171.885 35.8622 176.333 36.8885 180.607C37.9148 184.882 39.8611 188.882 42.5918 192.327C42.8631 192.669 43.1452 193.011 43.4326 193.342C43.4543 193.364 43.4705 193.385 43.4922 193.407C44.1996 194.222 44.9513 194.997 45.7439 195.729C45.95 195.919 46.167 196.115 46.3839 196.299C46.7964 196.668 47.2194 197.021 47.6589 197.357C48.517 198.034 49.4117 198.662 50.339 199.24L50.3716 199.256C50.9737 199.631 51.5867 199.978 52.2108 200.309L52.4657 200.439C53.0517 200.743 53.6485 201.031 54.2615 201.296C54.3863 201.351 54.5219 201.405 54.6467 201.459C54.6575 201.465 54.6631 201.465 54.6739 201.47C55.9126 201.985 57.1851 202.415 58.4825 202.756C61.0257 203.434 63.6465 203.777 66.2785 203.776C67.2388 203.776 68.1882 203.733 69.1268 203.64C71.2713 203.442 73.3885 203.015 75.4419 202.365C75.4474 202.365 75.4527 202.36 75.458 202.36C76.7552 201.947 78.0224 201.444 79.2505 200.857C79.2558 200.851 79.2669 200.851 79.2722 200.846C79.5488 200.716 79.8147 200.575 80.086 200.439L80.2163 200.374C80.4333 200.26 80.6502 200.146 80.8672 200.027C81.4097 199.728 81.9414 199.414 82.4678 199.077C82.6142 198.99 82.7552 198.898 82.9017 198.8C83.379 198.486 83.8511 198.149 84.3067 197.807C84.3883 197.748 84.475 197.688 84.5565 197.623C89.6392 193.764 93.3698 188.395 95.2138 182.286C97.0577 176.176 96.9203 169.64 94.8212 163.613ZM83.5581 196.304C83.379 196.446 83.1946 196.581 83.0103 196.706C82.8312 196.842 82.6521 196.972 82.4678 197.091C82.3104 197.205 82.1531 197.314 81.9902 197.417C81.8545 197.509 81.7189 197.596 81.5832 197.683C81.1331 197.965 80.6775 198.236 80.2163 198.497L80.0695 198.578C79.8634 198.692 79.6573 198.8 79.4512 198.909C79.424 198.925 79.3914 198.936 79.3644 198.952L79.3318 198.969C79.0714 199.104 78.8057 199.234 78.5397 199.359C77.5139 199.853 76.4574 200.281 75.3768 200.64C75.2358 200.689 75.0946 200.737 74.9537 200.781C73.0101 201.399 71.0057 201.807 68.975 201.996C68.0852 202.078 67.1845 202.121 66.2785 202.121C63.789 202.126 61.3098 201.801 58.9056 201.155C57.6717 200.833 56.4625 200.423 55.2869 199.929C55.1622 199.88 55.0374 199.826 54.9179 199.777C54.853 199.75 54.7932 199.723 54.728 199.69C54.2181 199.468 53.7137 199.224 53.2199 198.969L52.9812 198.844C52.3791 198.529 51.7875 198.193 51.2124 197.835C51.001 197.704 50.7894 197.569 50.5833 197.428C49.9321 196.999 49.2974 196.538 48.6788 196.055C48.2611 195.74 47.8597 195.404 47.469 195.056C47.2629 194.883 47.0621 194.693 46.8669 194.514C46.0977 193.803 45.3695 193.05 44.6859 192.257C44.4581 191.996 44.2356 191.736 44.0239 191.464C43.9758 191.411 43.9305 191.355 43.8882 191.296C40.3633 186.848 38.243 181.45 37.7979 175.791C37.3528 170.132 38.603 164.469 41.3891 159.524C44.1752 154.579 48.3709 150.575 53.4411 148.025C58.5112 145.474 64.2262 144.491 69.857 145.202C75.4878 145.913 80.7793 148.285 85.0567 152.016C89.334 155.747 92.4034 160.667 93.8733 166.15C95.3433 171.632 95.1472 177.429 93.31 182.799C91.4728 188.17 88.0779 192.871 83.5581 196.304Z" fill="#3F3D56"/>
<path d="M66.4494 291.786C72.9893 291.786 78.291 286.483 78.291 279.943C78.291 273.402 72.9893 268.1 66.4494 268.1C59.9095 268.1 54.6079 273.402 54.6079 279.943C54.6079 286.483 59.9095 291.786 66.4494 291.786Z" fill="#2F2E41"/>
<path d="M57.2064 273.557C59.1199 271.643 59.5077 268.928 58.0726 267.493C56.6374 266.057 53.9228 266.445 52.0092 268.359C50.0957 270.273 49.7079 272.988 51.143 274.423C52.5782 275.858 55.2928 275.471 57.2064 273.557Z" fill="#2F2E41"/>
<path d="M78.7912 269.796C79.5885 267.93 78.2174 265.554 75.7287 264.491C73.2401 263.428 70.5764 264.079 69.7791 265.946C68.9818 267.813 70.3529 270.188 72.8415 271.251C75.3301 272.314 77.9939 271.663 78.7912 269.796Z" fill="#2F2E41"/>
<path d="M80.6136 302.915L79.2185 300.72C78.6265 299.397 77.5345 298.363 76.1817 297.844C74.8289 297.325 73.3256 297.363 72.001 297.95C70.6764 298.538 69.6385 299.626 69.1146 300.977C68.5907 302.328 68.6236 303.832 69.206 305.159L69.6027 306.581L70.0542 308.196C71.882 307.965 73.6856 307.571 75.4433 307.019C75.4485 307.019 75.4533 307.016 75.457 307.012C76.7563 306.601 78.0247 306.098 79.2529 305.508C79.2595 305.501 79.2662 305.501 79.2732 305.494C79.5467 305.364 79.8135 305.227 80.087 305.09C80.1317 305.07 80.1751 305.047 80.2169 305.022C80.4357 304.912 80.6547 304.796 80.8668 304.68C81.0855 304.564 81.2975 304.441 81.5026 304.311L80.6136 302.915Z" fill="#CACACA"/>
<path d="M66.8247 292.821C72.375 292.821 76.8745 288.321 76.8745 282.77C76.8745 277.219 72.375 272.719 66.8247 272.719C61.2743 272.719 56.7749 277.219 56.7749 282.77C56.7749 288.321 61.2743 292.821 66.8247 292.821Z" fill="#FFB6B6"/>
<path d="M81.3386 302.484C80.2301 300.641 78.8541 298.972 77.2556 297.532C76.1607 296.554 74.7437 296.013 73.2753 296.014H59.1183C58.3026 296.013 57.4954 296.18 56.7468 296.504C55.9981 296.828 55.3238 297.302 54.7655 297.897C54.2073 298.492 53.7769 299.195 53.501 299.963C53.2251 300.731 53.1096 301.547 53.1615 302.361C53.1924 302.82 53.2751 303.275 53.408 303.715C53.5089 304.035 53.6346 304.346 53.784 304.646L54.4816 306.041C54.5363 306.062 54.5911 306.089 54.6455 306.109C54.6592 306.116 54.6662 306.116 54.6729 306.123C54.9601 306.239 55.2476 306.356 55.5414 306.465C56.5039 306.833 57.4857 307.148 58.4824 307.409C60.087 307.84 61.725 308.135 63.379 308.291C64.3434 308.38 65.3078 308.428 66.2789 308.428C67.2433 308.428 68.187 308.38 69.1307 308.291C69.4386 308.264 69.7462 308.23 70.0541 308.196C71.8819 307.965 73.6855 307.571 75.4432 307.019C75.4484 307.018 75.4532 307.016 75.4569 307.012C76.7562 306.601 78.0246 306.098 79.2527 305.508C79.2594 305.501 79.2661 305.501 79.2731 305.494C79.5466 305.364 79.8134 305.227 80.0869 305.09C80.1316 305.07 80.175 305.047 80.2169 305.022C80.4356 304.912 80.6546 304.796 80.8667 304.68C81.0854 304.564 81.2973 304.44 81.5025 304.311C81.7216 304.194 81.9266 304.064 82.1387 303.934C81.879 303.421 81.6121 302.943 81.3386 302.484Z" fill="#CACACA"/>
<path d="M61.6831 297.847C60.373 297.234 58.8735 297.164 57.5126 297.654C56.1516 298.144 55.0398 299.152 54.4203 300.459L53.1616 302.361L52.5599 303.271L51.6436 304.652C51.8349 304.755 52.0196 304.858 52.2113 304.96L52.464 305.09C53.0524 305.391 53.6472 305.678 54.263 305.945C54.3311 305.979 54.4066 306.007 54.4817 306.041C54.5365 306.061 54.5912 306.089 54.6457 306.109C54.6593 306.116 54.6664 306.116 54.673 306.123C54.9602 306.239 55.2477 306.355 55.5416 306.465C56.504 306.833 57.4858 307.148 58.4826 307.409C60.0871 307.84 61.7251 308.135 63.3791 308.291L63.858 306.67L64.3232 305.124C64.9363 303.809 65.0026 302.304 64.5077 300.939C64.0128 299.575 62.9969 298.463 61.6831 297.847Z" fill="#CACACA"/>
<path d="M56.2651 276.448C58.5617 278.031 61.2875 278.873 64.0766 278.862C63.0817 279.552 61.949 280.018 60.7567 280.228C64.4651 281.024 68.2977 281.045 72.0148 280.291C72.841 280.159 73.6382 279.885 74.3715 279.482C74.7369 279.278 75.0552 278.999 75.3059 278.664C75.5565 278.329 75.7338 277.944 75.8262 277.536C76.0732 276.125 74.9737 274.843 73.831 273.979C72.0816 272.676 70.0645 271.778 67.9256 271.351C65.7867 270.923 63.5796 270.977 61.4639 271.507C60.0542 271.791 58.7714 272.516 57.8012 273.577C57.3317 274.117 57.0483 274.794 56.9928 275.508C56.9373 276.221 57.1126 276.934 57.493 277.54L56.2651 276.448Z" fill="#2F2E41"/>
<path d="M94.8252 268.264C93.3804 264.112 91.0472 260.325 87.9885 257.167C84.9297 254.009 81.2189 251.556 77.115 249.98C73.011 248.404 68.6127 247.742 64.2267 248.041C59.8407 248.339 55.5726 249.591 51.7201 251.709C47.8676 253.827 44.5235 256.76 41.9209 260.303C39.3183 263.847 37.5199 267.916 36.6512 272.226C35.7825 276.536 35.8643 280.983 36.8909 285.258C37.9176 289.534 39.8643 293.533 42.5955 296.979C42.862 297.321 43.1495 297.663 43.4367 297.991C43.4532 298.015 43.4715 298.038 43.4915 298.059C44.1997 298.874 44.9532 299.648 45.7482 300.378C45.9533 300.569 46.1653 300.768 46.3844 300.953C46.7945 301.322 47.2186 301.671 47.663 302.006C47.834 302.143 48.005 302.28 48.183 302.409C48.8735 302.936 49.5985 303.422 50.3372 303.894C50.3499 303.894 50.362 303.899 50.3713 303.907C50.5833 304.037 50.8024 304.167 51.0211 304.29C51.2261 304.414 51.4382 304.537 51.6436 304.653C51.8349 304.756 52.0196 304.858 52.2113 304.961L52.4641 305.091C53.0525 305.392 53.6472 305.679 54.263 305.946C54.3311 305.98 54.4066 306.007 54.4817 306.041C54.5365 306.062 54.5913 306.089 54.6457 306.11C54.6594 306.117 54.6664 306.117 54.673 306.124C54.9602 306.24 55.2477 306.356 55.5416 306.466C56.504 306.834 57.4858 307.149 58.4826 307.409C60.0872 307.84 61.7251 308.135 63.3791 308.292C64.3436 308.381 65.308 308.429 66.2791 308.429C67.2435 308.429 68.1872 308.381 69.1309 308.292C69.4388 308.264 69.7464 308.23 70.0542 308.196C71.8821 307.965 73.6856 307.572 75.4434 307.02C75.4486 307.019 75.4534 307.016 75.457 307.013C76.7563 306.602 78.0248 306.099 79.2529 305.508C79.2596 305.501 79.2663 305.501 79.2733 305.494C79.5468 305.364 79.8136 305.228 80.0871 305.091C80.1318 305.071 80.1751 305.048 80.217 305.022C80.4357 304.913 80.6548 304.797 80.8668 304.68C81.0856 304.564 81.2975 304.441 81.5026 304.311C81.7217 304.195 81.9267 304.065 82.1388 303.935C82.2483 303.866 82.3578 303.798 82.4671 303.73C82.6177 303.641 82.7543 303.552 82.9049 303.449C83.1099 303.319 83.3153 303.176 83.5133 303.032C83.7801 302.847 84.0469 302.656 84.3068 302.457C84.3943 302.4 84.4788 302.339 84.5599 302.273C89.6387 298.411 93.3666 293.043 95.2103 286.935C97.0541 280.826 96.9193 274.291 94.8252 268.264ZM83.5614 300.953C83.3834 301.096 83.1988 301.233 83.0144 301.356C82.8294 301.493 82.6518 301.623 82.4671 301.746C82.3098 301.855 82.1525 301.965 81.9886 302.067C81.9737 302.08 81.9576 302.092 81.9405 302.102C81.8243 302.184 81.7011 302.259 81.5849 302.334C81.5027 302.382 81.4209 302.437 81.3387 302.485C81.0993 302.635 80.8599 302.779 80.6138 302.916C80.4839 302.998 80.3469 303.073 80.217 303.148C80.1693 303.176 80.1212 303.203 80.0734 303.23C79.8614 303.347 79.6563 303.449 79.451 303.559C79.4239 303.579 79.3895 303.586 79.3691 303.606C79.3564 303.607 79.3442 303.612 79.3347 303.62C79.0749 303.757 78.8081 303.887 78.5416 304.01C77.5148 304.504 76.457 304.932 75.3749 305.289C75.2383 305.337 75.0947 305.392 74.9578 305.433C73.2136 305.986 71.4204 306.371 69.6028 306.582C69.3977 306.609 69.1857 306.63 68.9736 306.65C68.0847 306.732 67.1887 306.773 66.2791 306.773C65.472 306.773 64.6581 306.739 63.8581 306.671C62.1853 306.531 60.5282 306.243 58.9067 305.809C57.6724 305.487 56.4632 305.076 55.2889 304.578C55.2271 304.55 55.1657 304.53 55.1042 304.502C55.0358 304.475 54.981 304.455 54.9196 304.427C54.8511 304.4 54.7963 304.373 54.7279 304.338C54.2834 304.147 53.8389 303.935 53.4081 303.716C53.3464 303.682 53.2849 303.654 53.2235 303.62L52.9841 303.497C52.8404 303.422 52.6969 303.347 52.56 303.271C52.1018 303.025 51.6503 302.758 51.2129 302.485C51.0486 302.382 50.8709 302.273 50.7066 302.163L50.5834 302.081C50.2004 301.821 49.8177 301.561 49.4413 301.281C49.1882 301.089 48.9284 300.905 48.6823 300.706C48.2652 300.392 47.8615 300.057 47.4718 299.708C47.2664 299.537 47.0614 299.345 46.87 299.167C46.0999 298.458 45.3714 297.704 44.6884 296.91C44.4626 296.65 44.2369 296.39 44.0248 296.117C43.9771 296.062 43.936 296.007 43.8879 295.946C40.3621 291.497 38.2412 286.098 37.7957 280.439C37.3501 274.779 38.6001 269.115 41.3862 264.169C44.1724 259.223 48.3684 255.219 53.4391 252.668C58.5099 250.117 64.2255 249.134 69.8571 249.844C75.4887 250.555 80.781 252.927 85.0591 256.658C89.3372 260.389 92.4072 265.31 93.8775 270.794C95.3478 276.277 95.1518 282.074 93.3145 287.445C91.4772 292.817 88.0818 297.519 83.5614 300.953Z" fill="#3F3D56"/>
<path d="M116.843 120.581C106.319 111.699 93.4407 106.069 79.7754 104.374C66.1102 102.679 52.247 104.993 39.8728 111.035C27.4987 117.076 17.147 126.585 10.0775 138.403C3.00804 150.221 -0.474473 163.839 0.0537655 177.601C0.582004 191.362 5.09821 204.674 13.0528 215.915C21.0075 227.156 32.0575 235.843 44.8584 240.918C57.6593 245.993 71.6591 247.237 85.1542 244.499C98.6493 241.762 111.058 235.16 120.87 225.498L208 299.027C209.326 300.142 211.041 300.686 212.767 300.539C214.494 300.392 216.091 299.566 217.21 298.242C218.329 296.919 218.877 295.206 218.735 293.479C218.593 291.752 217.772 290.151 216.452 289.029L216.442 289.021L129.312 215.491C139.434 200.963 143.766 183.177 141.459 165.62C139.153 148.064 130.374 132.001 116.843 120.581ZM111.226 208.411C104.438 216.456 95.4171 222.308 85.304 225.226C75.191 228.144 64.4398 227.997 54.4102 224.804C44.3806 221.611 35.5229 215.515 28.9574 207.287C22.3918 199.059 18.4132 189.069 17.5246 178.58C16.6361 168.091 18.8776 157.573 23.9656 148.358C29.0536 139.143 36.7596 131.644 46.1091 126.808C55.4587 121.973 66.0319 120.02 76.4917 121.194C86.9514 122.369 96.828 126.62 104.872 133.408C115.66 142.512 122.389 155.528 123.581 169.594C124.772 183.659 120.328 197.622 111.226 208.411Z" fill="#3F3D56"/>
<path opacity="0.3" d="M36.233 214.765C26.0237 206.149 19.4277 194.008 17.7548 180.752C16.0818 167.497 19.4542 154.097 27.2024 143.214C26.1849 144.239 25.2012 145.312 24.2514 146.434C19.7444 151.776 16.3337 157.953 14.2138 164.614C12.094 171.274 11.3065 178.287 11.8965 185.251C12.4865 192.216 14.4423 198.996 17.6522 205.205C20.8622 211.413 25.2634 216.929 30.6047 221.436C35.946 225.944 42.1227 229.355 48.7821 231.475C55.4415 233.595 62.4533 234.383 69.417 233.793C76.3807 233.203 83.1601 231.247 89.368 228.036C95.5759 224.826 101.091 220.424 105.598 215.082C106.545 213.959 107.438 212.809 108.275 211.631C98.8514 221.101 86.2117 226.68 72.8656 227.261C59.5195 227.841 46.4432 223.381 36.233 214.765Z" fill="black"/>
<path d="M292.496 301.776C293.177 300.945 293.667 299.975 293.932 298.934C294.197 297.893 294.231 296.807 294.031 295.751C293.831 294.696 293.402 293.697 292.774 292.826C292.146 291.954 291.335 291.231 290.398 290.706L274.516 225.693L262.93 229.392L280.08 293.962C279.304 295.595 279.154 297.457 279.658 299.194C280.163 300.93 281.287 302.422 282.817 303.385C284.348 304.348 286.178 304.716 287.962 304.42C289.746 304.124 291.36 303.183 292.496 301.776Z" fill="#FFB6B6"/>
<path d="M284.288 260.191L275.821 267.496L263.975 277.709L258.744 250.937L258.196 248.153L257.766 245.944L269.768 225.034L279.774 225.608L280.458 225.649L280.471 225.8L280.629 227.202L282.68 245.656L282.728 246.101L284.288 260.191Z" fill="#3F3D56"/>
<path d="M228.946 441.911L220.562 441.91L216.573 409.565L228.949 409.566L228.946 441.911Z" fill="#FFB6B6"/>
<path d="M231.085 450.04L204.05 450.039V449.697C204.05 446.906 205.159 444.229 207.132 442.255C209.106 440.282 211.782 439.173 214.573 439.173H214.573L231.086 439.174L231.085 450.04Z" fill="#2F2E41"/>
<path d="M316.487 442.595L308.103 442.595L304.113 410.25L316.489 410.251L316.487 442.595Z" fill="#FFB6B6"/>
<path d="M318.625 450.724L291.59 450.723V450.381C291.59 447.589 292.699 444.913 294.672 442.939C296.646 440.965 299.322 439.857 302.113 439.856H302.113L318.626 439.857L318.625 450.724Z" fill="#2F2E41"/>
<path d="M323.188 429.719L300.619 433.139L267.785 322.003L232.912 433.823L207.608 430.403L240.435 300.444V290.184L244.881 274.794L244.416 270.629L241.181 241.497L239.779 228.864L239.688 228.048C239.612 227.363 239.793 226.674 240.197 226.116C240.6 225.557 241.198 225.169 241.872 225.027L252.404 222.811H269.618L279.774 225.608L280.471 225.8L280.786 225.889L280.629 227.202L278.249 247.161L278.119 248.255L275.821 267.496L275.315 271.716C295.148 286.08 295.832 300.444 295.832 300.444L323.188 429.719Z" fill="#2F2E41"/>
<path d="M258.931 214.157C268.208 214.157 275.728 206.635 275.728 197.357C275.728 188.079 268.208 180.558 258.931 180.558C249.654 180.558 242.133 188.079 242.133 197.357C242.133 206.635 249.654 214.157 258.931 214.157Z" fill="#FFB6B6"/>
<path d="M276.573 267.856L243.345 272.202L243.966 276.95L277.194 272.604L276.573 267.856Z" fill="#3F3D56"/>
<path d="M198.774 273.633C199.091 273.839 199.392 274.069 199.674 274.322L232.54 265.943L234.782 258.013L247.19 259.833L244.585 274.257C244.375 275.422 243.792 276.488 242.924 277.293C242.057 278.099 240.952 278.602 239.774 278.726L201.399 282.768C200.774 284.085 199.762 285.18 198.499 285.908C197.236 286.636 195.781 286.962 194.328 286.843C192.875 286.724 191.493 286.166 190.365 285.242C189.237 284.318 188.418 283.072 188.015 281.671C187.612 280.27 187.645 278.779 188.11 277.397C188.575 276.015 189.45 274.808 190.618 273.935C191.786 273.062 193.192 272.566 194.649 272.512C196.106 272.458 197.544 272.849 198.774 273.633Z" fill="#FFB6B6"/>
<path d="M249.326 229.308L243.513 224.862C241.941 224.266 239.788 225.96 239.41 227.598L231.203 261.114L248.3 273.426L250.694 269.664L249.326 229.308Z" fill="#3F3D56"/>
<g opacity="0.2">
<path d="M282.68 245.656C281.229 246.232 279.75 246.734 278.249 247.161C277.77 247.304 277.278 247.441 276.792 247.571C273.591 248.459 270.302 248.991 266.985 249.158C265.557 249.218 264.126 249.18 262.703 249.042C261.176 248.889 259.667 248.592 258.197 248.153C258.149 248.139 258.094 248.125 258.046 248.111C254.988 247.243 252.184 245.65 249.873 243.467C249.357 242.964 248.875 242.427 248.43 241.86C247.153 240.295 246.216 238.482 245.679 236.535C245.142 234.589 245.017 232.551 245.312 230.553C245.369 230.191 245.446 229.833 245.544 229.479C245.802 228.517 246.143 227.579 246.563 226.675C246.748 226.251 246.953 225.834 247.172 225.423L254.9 222.811H269.618L279.774 225.608L280.458 225.649L280.471 225.8L280.786 225.889L280.629 227.202L282.68 245.656Z" fill="black"/>
</g>
<path d="M246.059 183.45C242.918 183.064 239.471 183.337 237.022 185.342C234.574 187.348 233.783 191.517 236.102 193.672C238.154 195.58 241.363 195.131 244.112 195.674C246.48 196.205 248.602 197.515 250.137 199.394C251.673 201.274 252.533 203.614 252.581 206.041C252.54 213 245.862 218.27 244.663 225.125C243.844 229.803 245.817 234.727 249.228 238.032C252.639 241.336 257.328 243.122 262.052 243.606C266.776 244.09 271.553 243.351 276.144 242.137C280.755 240.918 285.293 239.189 289.162 236.4C293.03 233.611 296.201 229.679 297.444 225.074C298.686 220.47 297.794 215.19 294.593 211.654C290.928 207.606 284.831 206.214 281.661 201.767C278.107 196.782 279.422 189.683 276.546 184.279C274.625 180.671 270.989 178.21 267.113 176.913C263.237 175.617 259.098 175.361 255.013 175.235C252.866 175.169 250.653 175.147 248.653 175.93C246.652 176.713 244.894 178.498 244.79 180.643C244.686 182.789 246.059 183.45 246.059 183.45Z" fill="#2F2E41"/>
<path d="M403.316 451H142.748C142.566 451 142.393 450.928 142.264 450.799C142.136 450.671 142.064 450.497 142.064 450.316C142.064 450.134 142.136 449.96 142.264 449.832C142.393 449.704 142.566 449.632 142.748 449.632H403.316C403.498 449.632 403.672 449.704 403.8 449.832C403.928 449.96 404 450.134 404 450.316C404 450.497 403.928 450.671 403.8 450.799C403.672 450.928 403.498 451 403.316 451Z" fill="#CACACA"/>
</g>
<defs>
<clipPath id="clip0_727_924">
<rect width="404" height="451" fill="white"/>
</clipPath>
</defs>
</svg>
